<svg xmlns="http://www.w3.org/2000/svg" width="17.1" height="17.1" viewBox="0 0 17.1 17.1">
  <g id="Group_876" data-name="Group 876" transform="translate(0 -1.032)">
    <path id="Path_391" data-name="Path 391" d="M12.736,10.413H4.366A4.37,4.37,0,0,0,0,14.778v8.37a4.37,4.37,0,0,0,4.365,4.365h8.37A4.37,4.37,0,0,0,17.1,23.148v-8.37a4.37,4.37,0,0,0-4.365-4.365M15.7,15.036V22.89a3.244,3.244,0,0,1-3.241,3.241H4.606A3.245,3.245,0,0,1,1.365,22.89V15.036A3.245,3.245,0,0,1,4.606,11.8H12.46A3.244,3.244,0,0,1,15.7,15.036" transform="translate(-0.001 -9.381)" fill="#d1d3d4"/>
    <path id="Path_392" data-name="Path 392" d="M49.993,55.983a3.989,3.989,0,1,0,3.989,3.989,3.994,3.994,0,0,0-3.989-3.989m2.347,3.989a2.347,2.347,0,1,1-2.347-2.347,2.349,2.349,0,0,1,2.347,2.347" transform="translate(-41.446 -50.436)" fill="#d1d3d4"/>
    <path id="Path_393" data-name="Path 393" d="M120.4,34.941a1.393,1.393,0,1,0,1.393,1.393,1.4,1.4,0,0,0-1.393-1.393" transform="translate(-107.215 -31.479)" fill="#d1d3d4"/>
  </g>
</svg>
