<svg xmlns="http://www.w3.org/2000/svg" xmlns:xlink="http://www.w3.org/1999/xlink" width="125.398" height="19.164" viewBox="0 0 125.398 19.164">
  <defs>
    <clipPath id="clip-path">
      <rect id="Rectangle_4135" data-name="Rectangle 4135" width="125.398" height="19.164" fill="none"/>
    </clipPath>
  </defs>
  <g id="Group_483" data-name="Group 483" clip-path="url(#clip-path)">
    <g id="Group_876" data-name="Group 876">
      <path id="Path_391" data-name="Path 391" d="M12.736,10.413H4.366A4.37,4.37,0,0,0,0,14.778v8.37a4.37,4.37,0,0,0,4.365,4.365h8.37A4.37,4.37,0,0,0,17.1,23.148v-8.37a4.37,4.37,0,0,0-4.365-4.365M15.7,15.036V22.89a3.244,3.244,0,0,1-3.241,3.241H4.606A3.245,3.245,0,0,1,1.365,22.89V15.036A3.245,3.245,0,0,1,4.606,11.8H12.46A3.244,3.244,0,0,1,15.7,15.036" transform="translate(-0.001 -9.381)" fill="#d1d3d4"/>
      <path id="Path_392" data-name="Path 392" d="M49.993,55.983a3.989,3.989,0,1,0,3.989,3.989,3.994,3.994,0,0,0-3.989-3.989m2.347,3.989a2.347,2.347,0,1,1-2.347-2.347,2.349,2.349,0,0,1,2.347,2.347" transform="translate(-41.446 -50.436)" fill="#d1d3d4"/>
      <path id="Path_393" data-name="Path 393" d="M120.4,34.941a1.393,1.393,0,1,0,1.393,1.393,1.4,1.4,0,0,0-1.393-1.393" transform="translate(-107.215 -31.479)" fill="#d1d3d4"/>
    </g>
    <path id="Path_394" data-name="Path 394" d="M735,33.477l-.39-.018q-7.137-.314-14.275,0l-.421.018a2.115,2.115,0,0,0-2.134,1.972v8.271a2.118,2.118,0,0,0,2.138,1.972l.414.018c4.758.21,9.53.21,14.287,0l.379-.018a2.074,2.074,0,0,0,2.092-1.972V35.449A2.072,2.072,0,0,0,735,33.477m-9.27,8.805v-5.4l4.808,2.7Z" transform="translate(-646.657 -30.002)" fill="#d1d3d4"/>
    <path id="Path_395" data-name="Path 395" d="M406.593,3.008h2.717V0h-4.842a3.242,3.242,0,0,0-3.236,3.221V6.381H399.08V8.97h2.152V19.163H405.1V8.97h3.7l.523-2.589H405.1V4.42a1.466,1.466,0,0,1,1.5-1.412" transform="translate(-359.535 0.001)" fill="#d1d3d4"/>
    <path id="Path_396" data-name="Path 396" d="M1104.008,19.173l6.247-7.1h-1.544l-5.39,6.135-4.338-6.113h-5.124l6.628,9.339-6.511,7.411,1.531,0,5.665-6.442,4.571,6.441h5.124Zm-5.619-5.931,10.252,14.447h-2.3l-10.252-14.447Z" transform="translate(-985.469 -10.874)" fill="#d1d3d4"/>
  </g>
</svg>
