<?xml version="1.0" encoding="UTF-8" ?>
<!DOCTYPE svg PUBLIC "-//W3C//DTD SVG 1.1//EN" "http://www.w3.org/Graphics/SVG/1.1/DTD/svg11.dtd">
<svg width="668pt" height="184pt" viewBox="0 0 668 184" version="1.1" xmlns="http://www.w3.org/2000/svg">
<g id="#ffffffff">
<path fill="#ffffff" opacity="1.00" d=" M 193.77 0.00 L 198.30 0.00 C 204.23 0.79 209.83 4.63 212.87 9.75 C 205.42 17.34 200.40 26.87 195.00 35.93 C 184.07 55.61 174.82 76.17 166.35 97.01 C 160.27 113.06 153.93 129.14 150.69 146.07 C 150.18 149.29 150.32 152.57 150.50 155.82 C 145.37 155.83 140.07 154.34 136.38 150.63 C 132.29 147.10 130.71 141.15 132.07 135.98 C 135.46 120.51 142.72 106.32 148.18 91.57 C 135.18 93.99 122.46 97.64 109.89 101.69 C 95.24 105.73 80.61 109.81 65.97 113.86 C 58.30 115.80 50.83 118.46 43.10 120.12 C 31.16 122.75 19.09 126.33 6.75 125.46 C 4.17 120.96 3.22 115.81 1.96 110.85 C 5.52 111.92 9.26 111.94 12.92 111.57 C 28.86 109.94 44.33 105.58 60.00 102.41 C 77.48 98.27 95.03 94.41 112.53 90.34 C 115.00 89.63 117.94 89.76 119.90 87.84 C 145.29 61.69 168.57 33.56 190.88 4.74 C 191.97 3.24 192.84 1.60 193.77 0.00 M 162.45 54.41 C 154.33 64.60 146.34 74.89 137.84 84.77 C 142.28 84.46 146.63 83.41 151.07 83.02 C 153.23 82.99 153.29 80.55 154.13 79.10 C 155.84 74.63 158.17 70.44 160.15 66.10 C 162.00 61.71 164.35 57.55 166.27 53.19 C 167.65 50.09 169.16 47.03 170.93 44.13 C 167.68 47.19 165.35 51.05 162.45 54.41 Z" />
<path fill="#ffffff" opacity="1.00" d=" M 472.01 17.31 C 474.75 12.24 477.16 7.01 479.91 1.95 C 487.23 2.37 494.13 6.19 498.52 12.04 C 497.08 14.03 495.65 16.02 494.21 17.99 C 511.83 18.82 529.45 19.58 547.06 20.47 C 545.76 24.80 542.27 27.81 539.05 30.74 C 522.29 30.40 505.55 29.20 488.79 28.64 C 487.10 28.01 486.67 29.98 485.96 30.95 C 474.34 51.00 463.10 71.39 454.09 92.74 C 460.27 87.18 466.28 81.30 471.16 74.55 C 477.13 60.31 484.90 46.76 494.83 34.89 C 501.81 35.51 509.99 37.54 513.98 43.81 C 507.09 48.47 502.85 55.89 498.73 62.90 C 495.60 69.02 492.60 75.28 490.87 81.96 C 489.63 86.85 488.09 91.99 489.61 97.00 C 491.95 95.99 493.34 93.74 494.98 91.91 C 509.04 73.86 520.96 54.20 535.50 36.53 C 542.15 37.68 548.98 39.77 553.76 44.82 C 541.91 60.46 533.69 78.51 527.38 96.99 C 535.29 90.80 541.76 82.99 548.10 75.25 C 553.28 69.14 557.05 62.03 561.34 55.29 C 562.00 54.09 563.43 52.41 561.75 51.33 C 559.02 48.52 557.82 44.75 556.76 41.08 C 556.69 40.37 556.55 38.94 556.48 38.23 C 571.65 42.47 587.54 42.12 603.13 42.64 C 609.27 44.57 612.71 50.54 616.61 55.23 C 601.07 67.68 589.77 85.55 585.45 105.01 C 592.72 102.04 597.96 95.79 603.52 90.47 C 606.17 88.23 606.56 84.65 607.84 81.63 C 612.21 71.18 618.73 61.65 626.76 53.67 C 630.49 50.20 634.71 46.68 639.93 45.92 C 647.04 46.10 653.83 49.34 659.14 53.97 C 661.50 56.58 662.08 60.25 663.38 63.43 C 664.14 66.17 665.81 69.32 664.08 72.03 C 658.96 80.59 653.23 88.98 645.71 95.63 C 643.30 97.70 640.33 99.99 636.95 99.25 C 632.35 98.53 629.32 94.71 625.83 92.04 C 623.96 99.06 623.45 107.60 629.11 113.07 C 632.02 115.87 636.42 114.40 639.14 112.09 C 649.51 104.89 658.50 95.82 666.18 85.82 C 666.54 87.27 667.28 90.18 667.64 91.63 L 668.00 88.38 L 668.00 91.79 C 659.57 104.60 650.38 116.89 641.97 129.71 C 629.62 128.52 616.31 124.73 608.05 114.86 C 605.31 111.86 604.64 107.74 603.56 103.98 C 599.34 109.35 595.28 114.86 591.46 120.53 C 590.33 122.01 589.46 124.71 587.05 123.71 C 580.25 121.94 573.61 118.39 569.03 112.96 C 563.53 105.33 564.70 95.26 567.81 86.93 C 573.58 73.60 582.61 61.89 592.97 51.80 C 588.00 52.21 582.90 51.26 578.03 52.54 C 574.67 58.83 570.48 64.63 566.72 70.67 C 557.09 84.82 547.60 99.26 535.57 111.52 C 531.90 115.07 527.56 119.50 521.95 118.58 C 514.42 118.42 508.39 111.32 508.40 104.00 C 507.92 96.99 510.13 90.10 513.06 83.83 C 504.94 94.11 498.76 105.79 491.13 116.44 C 479.27 114.07 467.80 103.76 468.08 90.98 C 461.87 98.47 456.47 106.58 451.06 114.64 C 443.26 114.45 435.32 110.86 430.12 105.01 C 430.34 101.57 432.04 98.43 433.22 95.24 C 433.30 94.67 433.45 93.54 433.53 92.98 C 429.36 100.49 423.49 106.95 419.16 114.39 C 410.92 112.58 402.30 110.18 396.00 104.25 C 400.09 90.03 405.92 76.43 412.03 62.99 C 398.26 78.49 384.50 94.67 376.00 113.74 C 368.56 113.94 361.96 109.53 356.24 105.23 C 359.42 99.30 362.20 93.15 364.59 86.86 C 357.71 96.18 350.69 105.49 345.04 115.62 C 337.61 116.05 330.06 115.59 322.87 113.60 C 315.49 111.41 307.83 106.32 306.78 98.06 C 306.23 92.41 307.05 86.74 308.47 81.27 C 312.36 68.30 319.17 56.24 328.03 46.02 C 331.50 42.23 335.13 38.39 339.77 36.03 C 343.39 33.92 347.81 34.44 351.75 35.21 C 358.57 36.97 365.62 40.46 369.05 46.94 C 370.96 50.37 368.08 53.85 366.79 56.96 C 361.70 65.82 356.13 74.57 348.94 81.89 C 346.38 84.13 343.78 87.29 340.00 86.80 C 335.44 87.30 332.20 83.74 328.81 81.34 C 327.79 87.29 325.93 94.41 330.21 99.55 C 331.88 102.30 335.79 103.73 338.55 101.70 C 347.59 95.47 354.55 86.84 361.49 78.46 C 366.38 72.66 370.77 66.48 375.07 60.24 C 377.20 57.19 377.83 53.42 379.22 50.02 C 381.35 44.53 383.29 38.94 384.40 33.13 C 392.70 32.67 400.75 35.55 407.78 39.77 C 400.76 49.56 394.75 60.06 389.95 71.11 C 401.75 57.04 414.15 43.17 429.30 32.59 C 435.18 32.85 441.14 34.39 445.74 38.24 C 446.90 38.81 447.39 40.52 446.54 41.55 C 435.61 57.23 426.65 74.47 421.31 92.86 C 432.02 84.02 440.33 72.67 448.39 61.47 C 454.17 50.22 460.09 39.03 465.92 27.80 C 440.43 26.82 414.96 25.79 389.49 24.34 C 390.60 20.38 392.94 16.67 395.97 13.92 C 402.79 14.23 409.62 14.62 416.45 14.83 C 426.29 15.75 436.21 15.30 446.05 16.32 C 454.72 16.33 463.36 17.05 472.01 17.31 M 345.05 52.06 C 338.26 58.54 333.83 67.02 330.33 75.62 C 332.26 75.66 333.88 74.54 335.36 73.42 C 341.82 68.50 347.13 62.15 351.29 55.21 C 352.36 53.09 353.14 50.78 352.63 48.39 C 349.58 48.04 347.18 50.19 345.05 52.06 M 633.25 74.43 C 631.13 78.28 628.25 82.04 628.07 86.59 C 637.46 82.93 644.51 74.83 649.39 66.23 C 649.63 64.66 649.73 63.09 649.67 61.50 C 649.02 61.45 647.70 61.35 647.04 61.29 C 640.80 63.45 636.89 69.27 633.25 74.43 Z" />
<path fill="#ffffff" opacity="1.00" d=" M 247.25 23.15 C 250.85 17.25 253.80 10.78 257.91 5.31 C 265.03 4.21 271.90 7.75 276.47 13.03 C 269.08 21.09 263.59 30.65 258.20 40.10 C 252.49 50.59 247.22 61.30 242.30 72.18 C 240.71 75.91 238.80 79.49 237.25 83.24 C 236.74 84.40 236.23 85.56 235.71 86.72 C 233.34 92.86 230.04 98.66 228.25 105.02 C 233.71 100.20 238.14 94.36 242.65 88.69 C 245.08 85.91 245.36 82.05 246.72 78.74 C 247.21 77.53 247.69 76.32 248.20 75.12 C 253.74 62.60 260.44 50.52 268.84 39.67 C 275.68 38.83 282.73 40.93 288.01 45.35 C 282.84 51.15 278.01 57.33 274.17 64.13 C 272.27 67.32 270.57 70.63 268.81 73.90 C 266.96 77.98 264.73 81.90 263.23 86.14 C 261.37 91.45 258.62 96.83 259.39 102.63 C 263.40 102.61 266.19 99.40 268.99 96.96 C 277.78 88.14 284.75 77.69 291.17 67.07 C 294.94 60.61 298.25 53.87 300.81 46.84 C 301.40 45.29 301.55 43.62 302.19 42.08 C 302.46 40.21 302.56 38.31 302.63 36.41 C 305.21 36.59 307.73 37.12 310.22 37.80 C 314.25 39.11 318.71 40.43 321.34 44.02 C 320.26 46.38 319.22 48.77 318.24 51.18 C 313.82 60.39 308.39 69.09 302.48 77.43 C 292.76 91.76 281.93 105.40 269.46 117.44 C 267.85 119.08 265.94 120.37 264.09 121.72 C 260.60 122.13 257.09 121.54 253.84 120.26 C 253.36 120.01 252.39 119.50 251.91 119.25 C 246.06 115.64 242.46 109.04 242.13 102.23 C 240.66 104.71 238.85 106.95 237.25 109.34 C 235.12 112.85 232.85 116.27 230.74 119.79 C 229.28 121.91 228.57 124.97 226.08 126.07 C 222.97 125.96 219.88 125.44 216.77 125.22 C 212.39 124.24 207.98 122.95 204.45 120.04 C 204.85 114.05 209.14 108.99 209.40 102.97 C 209.05 104.84 208.08 106.46 207.25 108.13 C 205.98 109.62 205.05 111.35 204.16 113.09 C 200.81 118.91 197.58 124.79 194.16 130.56 C 192.36 130.56 190.56 130.49 188.77 130.29 C 181.70 128.44 175.08 123.75 172.04 116.95 C 170.97 114.82 171.75 112.25 170.71 110.14 C 171.34 106.52 171.12 102.75 172.16 99.22 C 173.11 94.26 175.02 89.57 176.83 84.88 C 178.36 81.19 180.29 77.69 182.28 74.23 C 187.15 66.07 192.40 57.94 199.52 51.54 C 202.21 49.20 205.19 46.72 208.86 46.27 C 213.25 45.73 217.85 46.16 221.85 48.16 C 225.22 49.90 228.00 52.52 231.10 54.66 C 231.37 54.02 231.90 52.76 232.16 52.13 C 233.38 49.39 234.83 46.76 236.14 44.06 C 236.38 43.56 236.87 42.57 237.11 42.07 C 240.53 35.78 243.71 29.37 247.25 23.15 M 203.77 72.82 C 202.11 75.52 200.31 78.13 198.79 80.92 C 196.69 85.18 194.30 89.30 192.77 93.82 C 191.16 99.06 188.37 104.55 189.80 110.14 C 191.73 112.16 194.09 109.79 195.37 108.27 C 202.36 100.20 208.73 91.60 214.83 82.84 C 218.61 77.40 222.23 71.82 225.50 66.06 C 225.47 65.52 225.42 64.42 225.39 63.88 C 224.37 62.60 223.80 61.05 223.11 59.59 C 214.26 57.97 208.46 66.72 203.77 72.82 Z" />
<path fill="#ffffff" opacity="1.00" d=" M 95.26 113.03 C 103.39 109.91 111.94 107.91 120.19 105.09 C 109.02 117.89 97.41 130.41 84.29 141.25 C 77.01 146.66 69.54 153.37 60.03 153.87 C 54.32 154.56 49.07 149.87 48.00 144.45 C 51.60 144.23 54.88 142.70 58.08 141.18 C 71.56 133.37 83.92 123.67 95.26 113.03 Z" />
<path fill="#ffffff" opacity="1.00" d=" M 421.34 153.32 C 428.88 144.96 444.45 146.00 450.29 155.84 C 452.95 159.65 452.93 164.49 452.71 168.94 C 452.42 176.70 445.71 184.10 437.72 184.00 L 432.34 184.00 C 428.03 184.12 423.90 182.07 421.08 178.87 C 415.21 171.71 415.19 160.32 421.34 153.32 M 429.84 157.89 C 426.43 160.92 427.21 165.98 427.47 170.05 C 427.97 175.37 434.79 178.24 439.07 175.17 C 443.10 172.51 442.78 167.12 442.46 162.90 C 442.14 159.02 438.82 156.04 435.00 155.78 C 433.21 156.29 431.13 156.38 429.84 157.89 Z" />
<path fill="#ffffff" opacity="1.00" d=" M 478.64 147.98 C 485.35 147.23 493.75 148.34 497.28 154.92 C 497.56 155.95 497.88 156.99 498.22 158.02 C 499.00 162.91 496.53 167.83 492.17 170.13 C 494.55 173.51 497.33 176.58 499.57 180.06 C 498.00 184.56 491.07 185.39 488.60 181.35 C 486.60 178.51 485.00 175.42 483.10 172.52 C 482.15 172.44 481.20 172.36 480.27 172.28 C 479.34 176.16 480.99 180.19 479.43 184.00 L 473.60 184.00 C 471.15 184.07 470.41 181.82 469.73 180.05 C 469.74 170.64 469.85 161.22 469.67 151.81 C 471.22 148.40 475.49 148.52 478.64 147.98 M 479.74 156.39 C 479.78 159.10 479.78 161.81 479.75 164.52 C 481.58 164.60 483.42 164.59 485.25 164.35 C 485.76 164.05 486.78 163.45 487.29 163.15 C 488.26 161.21 488.55 158.79 486.88 157.11 C 484.77 155.76 482.09 156.16 479.74 156.39 Z" />
<path fill="#ffffff" opacity="1.00" d=" M 243.26 148.55 C 246.34 148.29 249.84 147.57 252.43 149.76 C 252.79 160.87 252.89 172.06 252.38 183.17 C 249.25 183.83 245.98 184.06 242.82 183.44 C 239.07 181.24 238.16 176.51 236.14 172.94 C 234.51 169.63 232.86 166.33 231.54 162.88 C 231.35 163.61 230.96 165.07 230.77 165.80 C 230.86 168.14 230.51 170.55 231.15 172.84 C 231.06 175.84 231.60 178.96 230.86 181.90 C 231.75 184.50 228.33 183.52 226.98 183.80 C 224.73 184.00 221.48 183.61 221.49 180.69 C 221.37 170.63 221.33 160.56 221.51 150.50 C 225.21 146.97 233.09 147.54 234.98 152.82 C 237.28 158.58 241.26 163.69 242.35 169.88 C 242.56 168.97 242.98 167.14 243.18 166.22 C 243.26 160.33 243.12 154.44 243.26 148.55 Z" />
<path fill="#ffffff" opacity="1.00" d=" M 516.39 148.68 C 519.33 148.21 522.92 147.50 525.36 149.72 C 526.54 153.71 525.20 157.97 526.32 161.98 C 530.13 157.43 534.12 153.04 537.88 148.44 C 540.93 148.42 544.77 149.66 545.27 153.14 C 545.27 157.12 541.46 159.42 539.11 162.12 C 537.88 163.71 535.38 164.70 535.30 166.92 C 538.93 170.95 542.86 174.72 546.38 178.84 C 546.78 183.56 541.41 184.53 537.83 183.67 C 533.31 179.97 530.40 174.72 525.90 171.02 C 525.81 175.20 525.88 179.39 525.85 183.58 C 522.97 183.53 519.57 184.55 517.07 182.83 C 515.27 179.92 516.54 176.22 515.99 173.00 C 516.14 171.34 516.13 169.66 515.99 168.00 C 516.10 163.67 516.22 159.32 515.99 155.00 C 516.26 152.92 515.79 150.64 516.39 148.68 Z" />
<path fill="#ffffff" opacity="1.00" d=" M 271.50 154.12 C 271.39 151.58 273.31 149.09 275.93 148.95 C 280.63 148.68 285.35 148.93 290.06 148.83 C 292.19 148.91 294.50 148.45 296.42 149.62 C 296.27 151.85 297.45 154.99 295.12 156.45 C 290.55 157.05 285.91 156.59 281.32 156.70 C 281.26 158.54 281.28 160.39 281.37 162.24 C 285.72 162.24 290.08 162.08 294.42 162.34 C 294.63 162.97 295.05 164.24 295.26 164.88 C 295.24 166.39 294.79 167.84 294.23 169.23 C 289.98 170.06 285.62 169.54 281.33 169.65 C 281.32 171.61 281.28 173.57 281.00 175.52 C 286.08 175.92 291.18 175.55 296.27 175.76 C 296.55 177.88 297.03 180.08 296.43 182.18 C 295.70 183.96 293.46 183.55 291.95 183.67 C 286.65 183.61 281.36 183.75 276.07 183.60 C 273.24 183.64 271.22 180.69 271.49 178.03 C 271.47 170.06 271.45 162.09 271.50 154.12 Z" />
<path fill="#ffffff" opacity="1.00" d=" M 311.61 150.78 C 311.92 150.41 312.53 149.69 312.84 149.32 C 318.50 148.31 324.32 149.08 330.05 148.84 C 333.52 149.04 337.11 148.32 340.48 149.37 C 340.78 151.68 340.88 154.02 340.27 156.30 C 337.36 157.05 334.34 156.81 331.38 156.73 C 330.64 165.66 331.60 174.66 330.86 183.60 C 328.20 183.70 325.48 184.07 322.86 183.42 C 321.11 182.79 321.26 180.57 321.16 179.07 C 321.14 171.79 321.15 164.52 321.17 157.25 C 318.37 157.18 315.58 157.16 312.79 157.19 C 311.21 155.39 311.47 152.99 311.61 150.78 Z" />
<path fill="#ffffff" opacity="1.00" d=" M 355.54 150.71 C 358.26 148.61 362.40 147.61 365.24 150.06 C 367.25 152.16 366.11 155.30 367.19 157.79 C 367.99 163.52 368.73 169.26 369.85 174.93 C 370.69 172.27 371.20 169.53 371.83 166.82 C 372.90 163.70 372.88 160.21 374.25 157.24 C 376.71 156.08 379.54 156.41 382.15 156.74 C 382.65 157.02 383.64 157.58 384.13 157.86 C 385.39 162.30 386.84 166.69 387.81 171.20 C 388.30 172.39 388.69 173.61 388.97 174.87 C 390.17 166.66 390.87 158.35 392.09 150.16 C 394.69 147.39 402.24 148.12 401.68 153.04 C 401.62 157.44 400.48 161.72 400.13 166.09 C 399.36 167.66 399.53 169.47 399.27 171.15 C 397.96 174.67 397.71 178.66 396.13 182.18 C 392.20 184.38 386.64 184.63 382.79 182.13 C 381.54 177.88 380.41 173.59 378.95 169.41 C 378.09 172.49 377.83 175.74 376.77 178.77 C 376.55 179.85 376.35 180.93 376.18 182.03 C 372.03 184.56 364.49 185.18 361.66 180.39 C 361.43 179.32 361.15 178.27 360.80 177.23 C 358.98 169.49 356.86 161.77 356.19 153.82 C 355.86 152.80 355.64 151.77 355.54 150.71 Z" />
</g>
</svg>
