<svg xmlns="http://www.w3.org/2000/svg" xmlns:xlink="http://www.w3.org/1999/xlink" width="14.012" height="22.5" viewBox="0 0 14.012 22.5">
  <defs>
    <clipPath id="clip-path">
      <rect id="Rectangle_4187" data-name="Rectangle 4187" width="14.012" height="22.5" fill="none"/>
    </clipPath>
  </defs>
  <g id="Group_676" data-name="Group 676" clip-path="url(#clip-path)">
    <path id="Path_790" data-name="Path 790" d="M7.006,0A6.8,6.8,0,0,0,0,6.544c0,.013,0,.026,0,.039.028,5.628,6.007,12.631,6.9,13.972l.01.016a.121.121,0,0,0,.2,0l.01-.016c.889-1.342,6.868-8.344,6.9-13.972,0-.013,0-.026,0-.039A6.8,6.8,0,0,0,7.006,0m.143,10.543q-.072,0-.143,0c-.047,0-.1,0-.143,0A3.521,3.521,0,0,1,3.412,6.957,3.521,3.521,0,0,1,6.863,3.37l.143,0q.071,0,.143,0A3.521,3.521,0,0,1,10.6,6.957a3.521,3.521,0,0,1-3.451,3.586"/>
    <path id="Path_791" data-name="Path 791" d="M19.785,178.049a2.934,2.934,0,0,0-.807-.421,11.391,11.391,0,0,0-2.594-.536.32.32,0,0,0-.348.294.327.327,0,0,0,.283.362,10.792,10.792,0,0,1,2.448.5c.635.234.765.439.765.481,0,.066-.262.4-1.47.692a17.927,17.927,0,0,1-4.066.411,17.928,17.928,0,0,1-4.066-.411c-1.208-.3-1.47-.626-1.47-.692,0-.042.13-.248.765-.481a10.792,10.792,0,0,1,2.448-.5.327.327,0,0,0,.283-.362.321.321,0,0,0-.348-.294,11.392,11.392,0,0,0-2.594.536,2.937,2.937,0,0,0-.807.421.873.873,0,0,0-.381.683,1.021,1.021,0,0,0,.623.846,5.215,5.215,0,0,0,1.336.488,18.548,18.548,0,0,0,4.211.428,18.548,18.548,0,0,0,4.211-.428,5.214,5.214,0,0,0,1.336-.488,1.021,1.021,0,0,0,.623-.846.873.873,0,0,0-.381-.683" transform="translate(-6.991 -158.168)"/>
    <path id="Path_792" data-name="Path 792" d="M12.542,179.212a18.724,18.724,0,0,1-4.252-.433,5.384,5.384,0,0,1-1.382-.507,1.18,1.18,0,0,1-.71-1,1.038,1.038,0,0,1,.447-.819,3.1,3.1,0,0,1,.855-.448,11.557,11.557,0,0,1,2.635-.546.482.482,0,0,1,.356.106.508.508,0,0,1-.254.9,10.622,10.622,0,0,0-2.406.492,1.967,1.967,0,0,0-.611.318,3.2,3.2,0,0,0,1.3.523,17.751,17.751,0,0,0,4.024.406,17.751,17.751,0,0,0,4.024-.406,3.2,3.2,0,0,0,1.3-.523,1.966,1.966,0,0,0-.611-.318,10.615,10.615,0,0,0-2.406-.492.508.508,0,0,1-.253-.9.479.479,0,0,1,.356-.106,11.556,11.556,0,0,1,2.635.546,3.1,3.1,0,0,1,.855.448,1.038,1.038,0,0,1,.447.819,1.18,1.18,0,0,1-.71,1,5.382,5.382,0,0,1-1.382.507,18.725,18.725,0,0,1-4.252.433m-2.355-3.4h-.014a11.216,11.216,0,0,0-2.552.527,2.767,2.767,0,0,0-.758.393.71.71,0,0,0-.315.547c0,.255.18.489.536.7a5.048,5.048,0,0,0,1.29.47,18.371,18.371,0,0,0,4.17.423,18.371,18.371,0,0,0,4.17-.423,5.044,5.044,0,0,0,1.29-.47c.356-.206.536-.44.536-.7a.71.71,0,0,0-.315-.547,2.767,2.767,0,0,0-.758-.393,11.213,11.213,0,0,0-2.552-.527.133.133,0,0,0-.1.03.159.159,0,0,0-.057.108.153.153,0,0,0,.128.172,10.956,10.956,0,0,1,2.489.512c.55.2.879.444.879.645s-.42.572-1.6.861a18.1,18.1,0,0,1-4.107.416,18.1,18.1,0,0,1-4.107-.416c-1.183-.289-1.6-.645-1.6-.861s.329-.442.879-.645a10.956,10.956,0,0,1,2.489-.512.153.153,0,0,0,.128-.172.158.158,0,0,0-.057-.108.135.135,0,0,0-.085-.031" transform="translate(-5.536 -156.712)"/>
  </g>
</svg>
