<?xml version="1.0" encoding="utf-8"?>
<!-- Generator: Adobe Illustrator 16.0.0, SVG Export Plug-In . SVG Version: 6.00 Build 0)  -->
<!DOCTYPE svg PUBLIC "-//W3C//DTD SVG 1.1//EN" "http://www.w3.org/Graphics/SVG/1.1/DTD/svg11.dtd">
<svg version="1.1" id="Layer_1" xmlns="http://www.w3.org/2000/svg" xmlns:xlink="http://www.w3.org/1999/xlink" x="0px" y="0px"
	 width="20px" height="18.771px" viewBox="330.571 311.038 20 18.771" enable-background="new 330.571 311.038 20 18.771"
	 xml:space="preserve">
<g id="_x23_000000ff">
	<path d="M334.743,311.05c0.097-0.032,0.196,0.008,0.292,0.026c0.169,0.035,0.31,0.152,0.418,0.283
		c0.115,0.144,0.152,0.33,0.171,0.508c0.001,0.763,0,1.526,0.001,2.29c-0.009,0.228-0.086,0.465-0.268,0.615
		c-0.135,0.148-0.338,0.192-0.529,0.215c-0.123-0.016-0.248-0.038-0.361-0.088c-0.245-0.135-0.425-0.399-0.422-0.684
		c-0.001-0.792,0.001-1.585-0.001-2.377C334.026,311.447,334.359,311.09,334.743,311.05z"/>
	<path d="M346.225,311.049c0.067-0.021,0.138-0.008,0.204,0.01c0.37,0.052,0.663,0.408,0.659,0.779c0.001,0.783,0,1.565,0.001,2.348
		c0.009,0.233-0.104,0.466-0.285,0.611c-0.231,0.209-0.586,0.23-0.862,0.102c-0.258-0.141-0.426-0.419-0.432-0.713
		c0.001-0.792,0-1.585,0.001-2.378C345.527,311.427,345.842,311.084,346.225,311.049z"/>
	<path d="M332.365,313.208c0.271-0.05,0.546-0.021,0.82-0.028c0.151,0.009,0.308-0.024,0.454,0.025
		c-0.003,0.337-0.001,0.675-0.001,1.013c-0.001,0.311,0.128,0.622,0.354,0.835c0.219,0.218,0.527,0.347,0.837,0.341
		c0.311,0.003,0.616-0.126,0.837-0.343c0.249-0.235,0.374-0.585,0.361-0.924c-0.001-0.186,0-0.372,0-0.558
		c0.001-0.13-0.011-0.262,0.017-0.391c3.015,0.002,6.031,0.002,9.046,0c0.035,0.374,0.001,0.752,0.018,1.127
		c0.027,0.197,0.086,0.393,0.197,0.56c0.176,0.255,0.448,0.446,0.754,0.507c0.259,0.05,0.538,0.021,0.773-0.102
		c0.382-0.187,0.653-0.588,0.664-1.015c0.005-0.351,0.002-0.701,0.001-1.052c0.109-0.035,0.225-0.022,0.337-0.023
		c0.41,0.005,0.83-0.033,1.229,0.088c0.326,0.104,0.638,0.272,0.876,0.52c0.382,0.36,0.609,0.875,0.631,1.397
		c0,4.228,0.001,8.455,0,12.683c-0.027,0.449-0.211,0.888-0.51,1.224c-0.313,0.364-0.754,0.611-1.225,0.697
		c-0.146,0.024-0.295,0.018-0.442,0.019c-5.266,0-10.531,0-15.796,0c-0.188,0.007-0.377-0.021-0.556-0.08
		c-0.781-0.229-1.387-0.952-1.471-1.763v-12.944C330.67,314.104,331.452,313.319,332.365,313.208 M331.95,317.339
		c-0.004,3.373,0,6.746-0.002,10.119c-0.002,0.107-0.001,0.217,0.028,0.321c0.082,0.401,0.476,0.709,0.885,0.69
		c5.158-0.001,10.315,0.001,15.473,0c0.157,0.002,0.301-0.069,0.436-0.142c0.247-0.155,0.395-0.438,0.417-0.724
		c-0.002-3.422,0.001-6.844-0.002-10.266C343.439,317.338,337.695,317.339,331.95,317.339z"/>
	<path d="M337.776,318.609c0.063-0.018,0.13-0.017,0.195-0.017c0.47,0.002,0.941-0.001,1.412,0.001
		c0.187-0.002,0.368,0.155,0.36,0.349c0.002,0.509,0.001,1.02,0,1.529c0.006,0.193-0.174,0.354-0.362,0.351
		c-0.5,0.001-1,0.001-1.5,0c-0.187,0.002-0.368-0.159-0.356-0.352c0.002-0.52,0-1.04,0.001-1.56
		C337.527,318.767,337.646,318.651,337.776,318.609z"/>
	<path d="M341.645,318.596c0.498-0.008,0.996,0,1.494-0.004c0.103-0.006,0.207,0.025,0.287,0.091
		c0.099,0.073,0.118,0.206,0.127,0.32c0.001,0.459,0,0.919,0.001,1.379c0.001,0.076-0.013,0.152-0.038,0.224
		c-0.053,0.139-0.204,0.221-0.349,0.217c-0.489,0-0.979-0.001-1.468,0c-0.182,0.007-0.366-0.137-0.372-0.324
		c-0.003-0.509,0-1.018-0.001-1.527C341.303,318.783,341.46,318.614,341.645,318.596z"/>
	<path d="M345.519,318.596c0.509-0.006,1.019-0.001,1.527-0.002c0.187-0.005,0.375,0.154,0.366,0.348c0,0.51,0,1.02,0,1.53
		c0.009,0.193-0.18,0.36-0.368,0.353c-0.501-0.001-1.001,0.001-1.502-0.001c-0.189-0.002-0.344-0.164-0.354-0.35
		c-0.005-0.48,0.001-0.961-0.003-1.441c-0.005-0.102,0.022-0.203,0.07-0.293C345.323,318.664,345.417,318.607,345.519,318.596z"/>
	<path d="M334.011,321.563c0.046-0.016,0.095-0.012,0.143-0.014c0.469,0.003,0.938,0.001,1.406,0.001
		c0.128,0.008,0.261,0.066,0.335,0.174c0.031,0.077,0.056,0.159,0.054,0.244c-0.002,0.479,0,0.959-0.001,1.438
		c-0.004,0.146-0.093,0.29-0.233,0.34c-0.075,0.037-0.161,0.029-0.242,0.03c-0.46-0.001-0.92,0-1.38-0.001
		c-0.196,0.007-0.39-0.167-0.375-0.369c0-0.5-0.001-1.001,0-1.501C333.713,321.735,333.851,321.596,334.011,321.563z"/>
	<path d="M337.83,321.561c0.075-0.018,0.152-0.01,0.229-0.011c0.431,0.001,0.862,0,1.292,0c0.184,0.003,0.386,0.129,0.391,0.329
		c0.006,0.519,0.003,1.037,0.001,1.555c0,0.19-0.179,0.343-0.364,0.342c-0.5,0-0.999,0.001-1.499,0c-0.179,0-0.364-0.151-0.355-0.34
		c0.001-0.52,0-1.038,0.001-1.558C337.525,321.711,337.676,321.587,337.83,321.561z"/>
	<path d="M341.592,321.57c0.07-0.028,0.148-0.02,0.224-0.021c0.45,0.001,0.9,0,1.351,0c0.126,0.012,0.267,0.064,0.332,0.18
		c0.06,0.119,0.058,0.256,0.056,0.386c-0.002,0.43,0.002,0.86-0.002,1.291c-0.003,0.191-0.161,0.363-0.354,0.369
		c-0.499,0.002-0.999,0-1.498,0c-0.184,0.006-0.376-0.146-0.372-0.338c0-0.521-0.001-1.04,0-1.561
		C341.324,321.726,341.454,321.608,341.592,321.57z"/>
	<path d="M345.468,321.569c0.072-0.027,0.15-0.019,0.225-0.02c0.45,0.001,0.9,0,1.351,0c0.176,0.006,0.364,0.139,0.368,0.327
		c0.003,0.52,0.001,1.038,0.001,1.558c0.005,0.191-0.186,0.346-0.369,0.341c-0.499,0-0.999,0.002-1.499,0
		c-0.194-0.006-0.358-0.176-0.358-0.37c0-0.479,0.001-0.958-0.001-1.438c-0.003-0.086,0.024-0.169,0.059-0.246
		C345.291,321.641,345.382,321.598,345.468,321.569z"/>
	<path d="M333.935,325.043c0.05-0.022,0.106-0.022,0.16-0.023c0.51,0.003,1.02,0,1.529,0.002c0.18,0.007,0.318,0.174,0.323,0.349
		c0.004,0.491,0,0.981,0.002,1.473c0.002,0.116-0.042,0.237-0.135,0.312c-0.08,0.082-0.202,0.09-0.31,0.089
		c-0.479-0.003-0.958,0.003-1.438-0.003c-0.19,0.001-0.364-0.178-0.349-0.369c0-0.499,0-0.999,0-1.498
		C333.71,325.229,333.805,325.097,333.935,325.043z"/>
	<path d="M337.747,325.04c0.042-0.02,0.09-0.019,0.136-0.02c0.499,0.001,0.997,0.001,1.496,0c0.181-0.014,0.36,0.137,0.363,0.322
		c0.006,0.48,0,0.96,0.003,1.44c0.008,0.129-0.011,0.274-0.117,0.363c-0.095,0.095-0.239,0.1-0.366,0.097
		c-0.459-0.002-0.919,0.001-1.378-0.002c-0.184,0.005-0.369-0.152-0.359-0.343c0.002-0.519,0-1.037,0.001-1.556
		C337.522,325.202,337.622,325.089,337.747,325.04z"/>
	<path d="M341.585,325.028c0.537-0.018,1.076-0.003,1.613-0.008c0.193-0.011,0.349,0.166,0.354,0.352
		c0.004,0.47-0.001,0.94,0.002,1.41c0.005,0.134-0.023,0.284-0.136,0.37c-0.078,0.085-0.203,0.091-0.311,0.091
		c-0.479-0.003-0.957,0.002-1.436-0.003c-0.189,0-0.366-0.178-0.346-0.37c0.001-0.51,0-1.02,0.001-1.529
		C341.323,325.191,341.445,325.064,341.585,325.028z"/>
	<path d="M345.411,325.043c0.042-0.021,0.089-0.021,0.135-0.022c0.46,0.001,0.92,0,1.38,0c0.11,0.002,0.233-0.019,0.328,0.055
		c0.107,0.056,0.162,0.181,0.159,0.298c-0.001,0.47-0.001,0.939,0,1.409c-0.002,0.07,0.004,0.142-0.011,0.211
		c-0.052,0.136-0.182,0.246-0.332,0.247c-0.479,0.006-0.958,0-1.438,0.003c-0.102,0.001-0.215-0.005-0.296-0.075
		c-0.104-0.071-0.153-0.202-0.151-0.325c0.001-0.49-0.001-0.979,0-1.47C345.191,325.229,345.276,325.097,345.411,325.043z"/>
</g>
</svg>
