<?xml version="1.0" encoding="utf-8"?>
<!-- Generator: Adobe Illustrator 16.0.0, SVG Export Plug-In . SVG Version: 6.00 Build 0)  -->
<!DOCTYPE svg PUBLIC "-//W3C//DTD SVG 1.1//EN" "http://www.w3.org/Graphics/SVG/1.1/DTD/svg11.dtd">
<svg version="1.1" id="Layer_1" xmlns="http://www.w3.org/2000/svg" xmlns:xlink="http://www.w3.org/1999/xlink" x="0px" y="0px"
	 width="15.213px" height="16px" viewBox="99.25 65.916 15.213 16" enable-background="new 99.25 65.916 15.213 16"
	 xml:space="preserve">
<path fill="#F85241" d="M109.215,70.122c-1.16,0-2.103-0.943-2.103-2.103c0-1.16,0.943-2.104,2.103-2.104s2.102,0.943,2.102,2.104
	S110.374,70.122,109.215,70.122z M109.215,66.978c-0.574,0-1.042,0.468-1.042,1.041c0,0.575,0.468,1.043,1.042,1.043
	s1.042-0.468,1.042-1.043C110.257,67.445,109.789,66.978,109.215,66.978z"/>
<path fill="#F85241" d="M102.14,81.916c-1.594,0-2.89-1.296-2.89-2.89c0-1.593,1.296-2.89,2.89-2.89c1.592,0,2.889,1.297,2.889,2.89
	C105.028,80.62,103.731,81.916,102.14,81.916z M102.14,77.199c-1.009,0-1.828,0.819-1.828,1.827s0.819,1.827,1.828,1.827
	c1.008,0,1.827-0.819,1.827-1.827S103.147,77.199,102.14,77.199z"/>
<path fill="#F85241" d="M111.573,81.916c-1.593,0-2.889-1.296-2.889-2.89c0-1.593,1.296-2.89,2.889-2.89s2.89,1.297,2.89,2.89
	C114.463,80.62,113.166,81.916,111.573,81.916z M111.573,77.199c-1.009,0-1.827,0.819-1.827,1.827s0.818,1.827,1.827,1.827
	c1.008,0,1.828-0.819,1.828-1.827S112.581,77.199,111.573,77.199z"/>
<path fill="#F85241" d="M106.857,79.557c-0.027,0-0.057-0.002-0.085-0.008c-0.289-0.046-0.486-0.317-0.439-0.606l0.044-0.282
	c0.177-1.105,0.241-1.565,0.077-1.867c-0.164-0.301-0.587-0.493-1.612-0.941l-1.161-0.507c-0.902-0.394-1.446-0.631-1.617-1.229
	c-0.169-0.598,0.169-1.086,0.729-1.896l0.966-1.39c0.553-0.796,0.885-1.275,1.497-1.331c0.614-0.056,1.026,0.354,1.712,1.036
	l0.455,0.453c0.63,0.626,0.946,0.941,1.281,1.08s0.78,0.139,1.67,0.139h1.592c0.293,0,0.53,0.237,0.53,0.53s-0.237,0.53-0.53,0.53
	h-1.592c-0.996,0-1.545,0-2.075-0.218c-0.529-0.218-0.919-0.605-1.624-1.308l-0.454-0.451c-0.369-0.366-0.748-0.766-0.868-0.733
	c-0.119,0.011-0.426,0.453-0.722,0.879l-0.965,1.39c-0.302,0.436-0.614,0.885-0.58,1.002c0.032,0.115,0.535,0.334,1.021,0.547
	l1.16,0.507c1.145,0.498,1.775,0.773,2.119,1.404c0.346,0.631,0.237,1.31,0.041,2.543l-0.046,0.282
	C107.338,79.371,107.114,79.557,106.857,79.557z"/>
</svg>
