<?xml version="1.0" encoding="utf-8"?>
<!-- Generator: Adobe Illustrator 16.0.0, SVG Export Plug-In . SVG Version: 6.00 Build 0)  -->
<!DOCTYPE svg PUBLIC "-//W3C//DTD SVG 1.1//EN" "http://www.w3.org/Graphics/SVG/1.1/DTD/svg11.dtd">
<svg version="1.1" id="Line" xmlns="http://www.w3.org/2000/svg" xmlns:xlink="http://www.w3.org/1999/xlink" x="0px" y="0px"
	 width="14.717px" height="16px" viewBox="125.389 99.251 14.717 16" enable-background="new 125.389 99.251 14.717 16"
	 xml:space="preserve">
<path fill="#F85241" d="M138.66,115.251h-11.825c-0.803-0.003-1.449-0.656-1.446-1.455c0.002-0.267,0.075-0.524,0.212-0.75
	l6.407-10.484l-1.437-2.352c-0.182-0.296-0.089-0.686,0.209-0.866c0.298-0.182,0.686-0.089,0.867,0.209l1.1,1.799l1.1-1.799
	c0.183-0.297,0.57-0.39,0.867-0.209c0.298,0.181,0.392,0.57,0.21,0.866l-1.438,2.352l6.407,10.484
	c0.201,0.332,0.262,0.721,0.172,1.098c-0.092,0.376-0.325,0.693-0.656,0.896C139.184,115.176,138.923,115.25,138.66,115.251z
	 M132.747,103.77l-6.07,9.934c-0.018,0.028-0.027,0.062-0.027,0.097c0,0.063,0.03,0.107,0.055,0.132
	c0.024,0.025,0.067,0.056,0.133,0.056h11.821c0.033,0,0.065-0.009,0.094-0.026c0.056-0.034,0.077-0.082,0.086-0.116
	c0.01-0.035,0.011-0.087-0.023-0.143L132.747,103.77z"/>
<path fill="#F85241" d="M136.022,115.251h-6.551c-0.232,0-0.446-0.129-0.555-0.334c-0.109-0.204-0.098-0.454,0.03-0.647l2.596-3.889
	c0.106-0.157,0.238-0.29,0.396-0.396c0.645-0.435,1.581-0.246,2.013,0.395l2.597,3.89c0.129,0.193,0.141,0.443,0.032,0.647
	C136.469,115.121,136.255,115.251,136.022,115.251z M130.654,113.988h4.188l-1.94-2.908c-0.055-0.081-0.175-0.107-0.261-0.049
	L130.654,113.988z"/>
</svg>
