<?xml version="1.0" encoding="utf-8"?>
<!-- Generator: Adobe Illustrator 16.0.0, SVG Export Plug-In . SVG Version: 6.00 Build 0)  -->
<!DOCTYPE svg PUBLIC "-//W3C//DTD SVG 1.1//EN" "http://www.w3.org/Graphics/SVG/1.1/DTD/svg11.dtd">
<svg version="1.1" id="Layer_1" xmlns="http://www.w3.org/2000/svg" xmlns:xlink="http://www.w3.org/1999/xlink" x="0px" y="0px"
	 width="19.378px" height="16px" viewBox="0 69.731 19.378 16" enable-background="new 0 69.731 19.378 16" xml:space="preserve">
<g>
	<g>
		<g>
			<path fill="#F85241" d="M5.446,77.11c2.034,0,3.689-1.655,3.689-3.689s-1.655-3.689-3.689-3.689
				c-2.034,0-3.689,1.655-3.689,3.689S3.412,77.11,5.446,77.11z M5.446,71.099c1.281,0,2.322,1.042,2.322,2.322
				s-1.042,2.322-2.322,2.322c-1.28,0-2.322-1.042-2.322-2.322S4.166,71.099,5.446,71.099z"/>
			<path fill="#F85241" d="M13.932,77.11c2.034,0,3.689-1.655,3.689-3.689s-1.655-3.689-3.689-3.689s-3.689,1.655-3.689,3.689
				S11.898,77.11,13.932,77.11z M13.932,71.099c1.28,0,2.322,1.042,2.322,2.322s-1.042,2.322-2.322,2.322s-2.322-1.042-2.322-2.322
				S12.652,71.099,13.932,71.099z"/>
			<path fill="#F85241" d="M9.689,79.785C6.497,75.809,0,78.063,0,83.201v1.847c0,0.377,0.306,0.684,0.684,0.684h9.524h8.487
				c0.377,0,0.683-0.306,0.683-0.684v-1.847C19.378,78.061,12.877,75.812,9.689,79.785z M9.524,84.364H1.367v-1.163
				c0-2.249,1.83-4.079,4.079-4.079c2.27,0,4.078,1.837,4.078,4.079V84.364L9.524,84.364z M18.011,84.364h-7.12
				c0-1.277,0.082-2.084-0.435-3.299c0.74-1.206,2.044-1.942,3.476-1.942c2.249,0,4.079,1.83,4.079,4.079V84.364L18.011,84.364z"/>
		</g>
	</g>
</g>
</svg>
