<?xml version="1.0" encoding="utf-8"?>
<!-- Generator: Adobe Illustrator 16.0.0, SVG Export Plug-In . SVG Version: 6.00 Build 0)  -->
<!DOCTYPE svg PUBLIC "-//W3C//DTD SVG 1.1//EN" "http://www.w3.org/Graphics/SVG/1.1/DTD/svg11.dtd">
<svg version="1.1" id="Layer_1" xmlns="http://www.w3.org/2000/svg" xmlns:xlink="http://www.w3.org/1999/xlink" x="0px" y="0px"
	 width="15.833px" height="16px" viewBox="4.178 0 15.833 16" enable-background="new 4.178 0 15.833 16" xml:space="preserve">
<path fill="#EA5647" d="M19.103,11.105h-7.177V10.46h3.451c0.588,0,0.987-0.6,0.76-1.142l-3.686-8.813
	C12.322,0.199,12.024,0,11.691,0c-0.458,0-0.824,0.375-0.824,0.824c0,0.186,0,3.825,0,4.183h-0.499V3.308
	c0-0.382-0.259-0.711-0.63-0.801C9.375,2.419,8.989,2.585,8.812,2.932L5.339,9.7c-0.181,0.352,0.075,0.771,0.471,0.771h4.029
	c0.292,0,0.529-0.237,0.529-0.53V8.954h0.499c0,0.238,0,1.956,0,2.151H5.085c-0.604,0-1.041,0.583-0.87,1.163l0.883,2.993
	C5.227,15.696,5.633,16,6.087,16h10.866c0.343,0,0.662-0.169,0.854-0.454l2.047-3.027C20.261,11.918,19.829,11.105,19.103,11.105z
	 M11.926,1.997l3.097,7.404h-3.097V1.997z M9.31,9.412H6.677L9.31,4.282V9.412L9.31,9.412z M10.369,7.895V6.066h0.499v1.829H10.369
	L10.369,7.895z M16.938,14.94H6.108L5.29,12.165h13.526L16.938,14.94z"/>
</svg>
