<?xml version="1.0" encoding="utf-8"?>
<!-- Generator: Adobe Illustrator 16.0.0, SVG Export Plug-In . SVG Version: 6.00 Build 0)  -->
<!DOCTYPE svg PUBLIC "-//W3C//DTD SVG 1.1//EN" "http://www.w3.org/Graphics/SVG/1.1/DTD/svg11.dtd">
<svg version="1.1" id="Layer_1" xmlns="http://www.w3.org/2000/svg" xmlns:xlink="http://www.w3.org/1999/xlink" x="0px" y="0px"
	 width="11.197px" height="16px" viewBox="3.901 0 11.197 16" enable-background="new 3.901 0 11.197 16" xml:space="preserve">
<g>
	<g>
		<path fill="#EA5647" d="M15.008,15.186c-0.369-0.43-1.031-1.499-1.741-2.854h0.401v-1.043h-0.93
			c-0.217-0.443-0.432-0.904-0.641-1.373c-0.158-0.358-0.309-0.711-0.449-1.059h0.283V7.816h-0.689
			c-0.318-0.86-0.578-1.675-0.773-2.432h0.421V4.342H10.23c-0.139-0.709-0.209-1.351-0.209-1.911V0H8.979v2.432
			c0,0.56-0.071,1.201-0.209,1.911H8.11v1.042h0.421C8.335,6.141,8.076,6.956,7.758,7.816H7.068v1.042h0.284
			c-0.142,0.348-0.292,0.7-0.45,1.059c-0.208,0.469-0.424,0.93-0.641,1.373h-0.93v1.043h0.402c-0.71,1.354-1.372,2.424-1.741,2.854
			c-0.031,0.032-0.062,0.065-0.091,0.099L4.658,16c0.034-0.033,0.069-0.071,0.105-0.113c1.013-1.055,3.002-1.818,4.737-1.818
			s3.724,0.764,4.736,1.818c0.037,0.042,0.072,0.08,0.105,0.113l0.757-0.716C15.069,15.251,15.039,15.218,15.008,15.186z M9.5,5.813
			c0.182,0.676,0.399,1.351,0.632,2.002H8.868C9.101,7.164,9.318,6.489,9.5,5.813z M7.854,10.338
			c0.203-0.458,0.414-0.956,0.621-1.48h2.049c0.207,0.524,0.418,1.023,0.621,1.48c0.144,0.324,0.29,0.643,0.437,0.951H7.418
			C7.565,10.98,7.71,10.662,7.854,10.338z M12.484,13.596c-0.969-0.367-2.029-0.569-2.984-0.569s-2.015,0.202-2.984,0.569
			c-0.122,0.046-0.242,0.094-0.358,0.145c0.24-0.428,0.493-0.901,0.75-1.408h5.184c0.258,0.507,0.51,0.98,0.75,1.408
			C12.726,13.689,12.605,13.642,12.484,13.596z"/>
	</g>
</g>
<g>
	<g>
		<rect x="8.979" y="9.379" fill="#EA5647" width="1.042" height="1.39"/>
	</g>
</g>
</svg>
