<?xml version="1.0" encoding="utf-8"?>
<!-- Generator: Adobe Illustrator 16.0.0, SVG Export Plug-In . SVG Version: 6.00 Build 0)  -->
<!DOCTYPE svg PUBLIC "-//W3C//DTD SVG 1.1//EN" "http://www.w3.org/Graphics/SVG/1.1/DTD/svg11.dtd">
<svg version="1.1" id="圖層_1" xmlns="http://www.w3.org/2000/svg" xmlns:xlink="http://www.w3.org/1999/xlink" x="0px" y="0px"
	 width="17.733px" height="16px" viewBox="10.464 60.003 17.733 16" enable-background="new 10.464 60.003 17.733 16"
	 xml:space="preserve">
<path fill="#EA5647" d="M26.026,67.976c-0.401-0.155-0.789-0.341-1.161-0.558c0.454-0.461,0.819-1.002,1.077-1.596
	c0.131-0.08,0.241-0.19,0.321-0.32c0.292-0.453,0.381-1.007,0.245-1.528c-0.06-0.171-0.156-0.328-0.283-0.458
	c-0.005-0.443-0.061-0.884-0.168-1.313c-0.453-1.356-1.757-2.242-3.185-2.162c-1.332-0.071-2.562,0.715-3.055,1.955
	c-0.18-0.027-0.361-0.043-0.542-0.046c-0.13,0-0.244,0-0.359,0c-0.523-1.212-1.735-1.982-3.055-1.939
	c-1.439-0.1-2.764,0.786-3.223,2.153c-0.107,0.43-0.164,0.871-0.168,1.314c-0.126,0.127-0.222,0.281-0.283,0.45
	c-0.149,0.535-0.06,1.109,0.245,1.574c0.072,0.131,0.174,0.244,0.298,0.328c0.281,0.586,0.652,1.125,1.1,1.596
	c-0.384,0.213-0.782,0.399-1.191,0.558c-2.215,0.833-2.192,2.627-2.169,3.933c-0.001,0.751,0.586,1.372,1.336,1.413h1.474
	c-0.067,0.381-0.11,0.767-0.13,1.153c-0.017,0.41,0.132,0.809,0.413,1.107c0.237,0.26,0.572,0.409,0.924,0.413h9.86
	c0.355-0.005,0.693-0.157,0.932-0.42c0.276-0.292,0.423-0.683,0.405-1.084c-0.024-0.393-0.075-0.783-0.153-1.168h1.329
	c0.75-0.041,1.337-0.662,1.336-1.413C28.21,70.611,28.241,68.816,26.026,67.976z M21.336,64.364c0.101,0.415,0.144,0.841,0.13,1.268
	c-0.037,0.248,0.112,0.485,0.352,0.558c0.02,0.226-0.037,0.452-0.161,0.642c-0.164,0.095-0.286,0.248-0.343,0.428
	c-0.123,0.42-0.97,2.047-2.047,2.047c-1.077,0-1.932-1.627-2.07-2.108c-0.068-0.162-0.186-0.298-0.336-0.39
	c-0.191-0.367-0.191-0.588-0.153-0.619c0.229-0.091,0.373-0.319,0.359-0.565c-0.014-0.427,0.03-0.853,0.13-1.268
	c0.314-0.858,1.167-1.397,2.077-1.313C20.184,62.959,21.033,63.503,21.336,64.364z M11.805,72.185c-0.061,0-0.191-0.138-0.191-0.283
	c0-1.428,0.061-2.33,1.428-2.849c0.729-0.286,1.428-0.644,2.085-1.069c0.266-0.172,0.342-0.526,0.17-0.792
	c-0.044-0.068-0.102-0.126-0.17-0.17c-0.591-0.453-1.063-1.042-1.375-1.718c-0.053-0.155-0.166-0.282-0.313-0.352
	c-0.214-0.397-0.214-0.634-0.176-0.664c0.223-0.093,0.363-0.316,0.351-0.558c-0.015-0.432,0.029-0.863,0.13-1.283
	c0.317-0.855,1.169-1.391,2.078-1.306c0.802-0.055,1.562,0.367,1.939,1.077c-0.802,0.348-1.417,1.024-1.688,1.856
	c-0.107,0.427-0.163,0.865-0.168,1.306c-0.126,0.128-0.223,0.282-0.283,0.451c-0.148,0.533-0.059,1.104,0.244,1.566
	c0.07,0.13,0.169,0.243,0.291,0.328c0.232,0.585,0.566,1.125,0.985,1.596c-0.333,0.225-0.692,0.409-1.069,0.55
	c-1.105,0.375-1.994,1.211-2.437,2.292L11.805,72.185z M24.445,74.796c-0.024,0.031-0.06,0.053-0.099,0.061h-9.837
	c-0.036-0.006-0.068-0.025-0.091-0.054c-0.065-0.067-0.101-0.158-0.1-0.252c0.115-2.016,0.764-3.055,2.154-3.589
	c0.565-0.212,1.096-0.508,1.573-0.878c0.368,0.226,0.791,0.347,1.222,0.352c0.503-0.011,0.991-0.176,1.397-0.474
	c0.524,0.395,1.103,0.712,1.718,0.939c0.837,0.294,1.497,0.951,1.795,1.787c-0.001,0.018-0.001,0.036,0,0.053
	c0.003,0.14,0.058,0.273,0.153,0.375c0.123,0.47,0.197,0.951,0.221,1.436C24.552,74.645,24.514,74.733,24.445,74.796L24.445,74.796z
	 M27.026,71.902c0,0.145-0.13,0.283-0.191,0.283h-1.642c-0.424-1.093-1.302-1.949-2.406-2.345c-0.451-0.168-0.879-0.392-1.275-0.665
	c0.355-0.435,0.641-0.922,0.848-1.443c0.122-0.09,0.222-0.208,0.291-0.344c0.318-0.492,0.399-1.1,0.221-1.657
	c-0.061-0.141-0.149-0.268-0.259-0.375c-0.007-0.435-0.063-0.868-0.168-1.291c-0.252-0.773-0.802-1.413-1.527-1.779
	c0.333-0.753,1.104-1.212,1.925-1.146c0.907-0.089,1.76,0.449,2.069,1.306c0.101,0.415,0.144,0.841,0.13,1.268
	c-0.014,0.249,0.125,0.482,0.352,0.588c0.023,0.209-0.028,0.42-0.145,0.596c-0.167,0.108-0.294,0.27-0.359,0.458
	c-0.264,0.635-0.704,1.181-1.268,1.573c-0.288,0.131-0.416,0.471-0.285,0.759c0.042,0.09,0.105,0.168,0.186,0.227
	c0.654,0.456,1.359,0.835,2.1,1.13C26.98,69.565,27.064,70.474,27.026,71.902z"/>
</svg>
