<?xml version="1.0" encoding="utf-8"?>
<!-- Generator: Adobe Illustrator 16.0.0, SVG Export Plug-In . SVG Version: 6.00 Build 0)  -->
<!DOCTYPE svg PUBLIC "-//W3C//DTD SVG 1.1//EN" "http://www.w3.org/Graphics/SVG/1.1/DTD/svg11.dtd">
<svg version="1.1" id="Layer_1" xmlns="http://www.w3.org/2000/svg" xmlns:xlink="http://www.w3.org/1999/xlink" x="0px" y="0px"
	 width="16px" height="13.546px" viewBox="0 0.001 16 13.546" enable-background="new 0 0.001 16 13.546" xml:space="preserve">
<g id="Group_266">
	<g>
		<g>
			<g id="Group_265">
				<path id="Path_326" fill="#EA5647" d="M15.439,12.423h-1.137V2.598c0-0.631-0.511-1.143-1.143-1.143c0,0,0,0-0.001,0h-0.643
					V0.827c-0.003-0.457-0.374-0.826-0.831-0.826h-7.37c-0.458,0-0.829,0.368-0.832,0.826v0.628H2.841
					C2.21,1.454,1.699,1.966,1.698,2.597c0,0.001,0,0.001,0,0.001v9.825H0.562C0.252,12.423,0,12.675,0,12.984
					c0,0.312,0.251,0.563,0.562,0.563h14.875c0.312,0,0.563-0.252,0.563-0.563C16,12.673,15.749,12.423,15.439,12.423 M6.995,3.49
					c0-0.224,0.182-0.405,0.405-0.405h1.201c0.224,0,0.404,0.182,0.404,0.405v1.2c0,0.224-0.181,0.405-0.404,0.405H7.4
					c-0.224,0-0.405-0.182-0.405-0.405V3.49z M6.995,6.811c0-0.224,0.182-0.405,0.405-0.405h1.201c0.224,0,0.404,0.181,0.404,0.405
					v1.205c0,0.224-0.181,0.404-0.404,0.404H7.4c-0.224,0-0.405-0.181-0.405-0.404V6.811z M3.484,3.49
					c0-0.224,0.182-0.405,0.405-0.405H5.09c0.224,0,0.405,0.182,0.405,0.405v1.2c0,0.224-0.181,0.405-0.405,0.405H3.889
					c-0.224,0-0.405-0.182-0.405-0.405V3.49z M5.09,8.417H3.889c-0.224,0-0.405-0.181-0.405-0.404V6.812
					c0-0.224,0.182-0.405,0.405-0.405H5.09c0.224,0,0.405,0.182,0.405,0.405v1.204c0,0.224-0.181,0.404-0.405,0.404 M7.502,12.427
					H5.401v-2.301c0-0.286,0.231-0.517,0.517-0.517h1.584V12.427z M10.6,12.427H8.499v-2.81h1.582c0.285,0,0.516,0.231,0.516,0.517
					L10.6,12.427z M12.515,8.016c0,0.224-0.182,0.404-0.404,0.404h-1.203c-0.224,0-0.405-0.181-0.405-0.404V6.812
					c0-0.224,0.182-0.405,0.405-0.405h1.199c0.225,0,0.405,0.182,0.405,0.405L12.515,8.016z M12.515,4.694
					c0,0.224-0.182,0.405-0.404,0.405h-1.203c-0.224,0-0.405-0.182-0.405-0.405V3.49c0-0.224,0.182-0.405,0.405-0.405h1.199
					c0.225,0,0.405,0.182,0.405,0.405L12.515,4.694z"/>
			</g>
		</g>
	</g>
</g>
</svg>
