<?xml version="1.0" encoding="utf-8"?>
<!-- Generator: Adobe Illustrator 16.0.0, SVG Export Plug-In . SVG Version: 6.00 Build 0)  -->
<!DOCTYPE svg PUBLIC "-//W3C//DTD SVG 1.1//EN" "http://www.w3.org/Graphics/SVG/1.1/DTD/svg11.dtd">
<svg version="1.1" id="Capa_1" xmlns="http://www.w3.org/2000/svg" xmlns:xlink="http://www.w3.org/1999/xlink" x="0px" y="0px"
	 width="11.541px" height="16px" viewBox="398.499 334.133 11.541 16" enable-background="new 398.499 334.133 11.541 16"
	 xml:space="preserve">
<path fill="#EA5647" d="M404.27,339.591c1.505,0,2.729-1.224,2.729-2.729s-1.224-2.729-2.729-2.729s-2.729,1.224-2.729,2.729
	S402.765,339.591,404.27,339.591z M404.27,335.638c0.675,0,1.224,0.549,1.224,1.224s-0.549,1.224-1.224,1.224
	s-1.224-0.549-1.224-1.224S403.595,335.638,404.27,335.638z M409.287,340.739h-3.25c-0.002,0-0.003,0-0.004,0
	c-0.002,0-0.003,0-0.004,0h-3.52c-0.001,0-0.003,0-0.004,0s-0.003,0-0.004,0h-3.25c-0.416,0-0.752,0.337-0.752,0.752
	s0.337,0.752,0.752,0.752h2.501v6.384h-1.204c-0.416,0-0.752,0.337-0.752,0.752c0,0.416,0.337,0.753,0.752,0.753h1.953
	c0.001,0,0.003,0,0.004,0c0.234,0,0.442-0.106,0.581-0.274c0.107-0.13,0.172-0.297,0.172-0.479c0-0.001,0-0.002,0-0.003v-2.75h2.021
	v2.754c0,0.416,0.337,0.752,0.753,0.752c0.001,0,0.002,0,0.004,0h1.952c0.416,0,0.753-0.337,0.753-0.753
	c0-0.416-0.337-0.752-0.753-0.752h-1.204v-6.384h2.502c0.416,0,0.753-0.337,0.753-0.752S409.703,340.739,409.287,340.739z
	 M405.28,345.122h-2.021v-2.878h2.021V345.122z"/>
</svg>
