<?xml version="1.0" encoding="utf-8"?>
<!-- Generator: Adobe Illustrator 16.0.0, SVG Export Plug-In . SVG Version: 6.00 Build 0)  -->
<!DOCTYPE svg PUBLIC "-//W3C//DTD SVG 1.1//EN" "http://www.w3.org/Graphics/SVG/1.1/DTD/svg11.dtd">
<svg version="1.1" id="Layer_1" xmlns="http://www.w3.org/2000/svg" xmlns:xlink="http://www.w3.org/1999/xlink" x="0px" y="0px"
	 width="14.702px" height="16px" viewBox="32.459 0 14.702 16" enable-background="new 32.459 0 14.702 16" xml:space="preserve">
<g>
	<g>
		<path fill="#EA5647" d="M47.161,8.475V8c0-1.963-0.765-3.81-2.153-5.198c-1.276-1.276-2.938-2.024-4.723-2.138V0h-0.951v0.665
			c-1.785,0.113-3.447,0.862-4.723,2.138C33.224,4.19,32.459,6.037,32.459,8v0.475h6.875v5.458c0,1.139,0.927,2.066,2.066,2.066
			c1.14,0,2.066-0.927,2.066-2.066v-0.558h-0.95v0.558c0,0.615-0.501,1.116-1.116,1.116s-1.116-0.5-1.116-1.116V8.475H47.161z
			 M33.427,7.525C33.671,4.217,36.441,1.6,39.81,1.6c3.37,0,6.139,2.617,6.383,5.925H33.427z"/>
	</g>
</g>
<g>
	<g>
		<path fill="#EA5647" d="M43.253,3.376c-1.002-0.748-2.192-1.143-3.443-1.143v0.951c1.044,0,2.038,0.33,2.875,0.954
			c0.81,0.604,1.42,1.463,1.722,2.42l0.906-0.285C44.953,5.128,44.221,4.099,43.253,3.376z"/>
	</g>
</g>
</svg>
