<?xml version="1.0" encoding="utf-8"?>
<!-- Generator: Adobe Illustrator 16.0.0, SVG Export Plug-In . SVG Version: 6.00 Build 0)  -->
<!DOCTYPE svg PUBLIC "-//W3C//DTD SVG 1.1//EN" "http://www.w3.org/Graphics/SVG/1.1/DTD/svg11.dtd">
<svg version="1.1" id="Icons" xmlns="http://www.w3.org/2000/svg" xmlns:xlink="http://www.w3.org/1999/xlink" x="0px" y="0px"
	 width="10.622px" height="16px" viewBox="4.5 0.5 10.622 16" enable-background="new 4.5 0.5 10.622 16" xml:space="preserve">
<path fill="#EA5647" d="M12.5,13.811H7.122c-1.446,0-2.622-1.176-2.622-2.621V3.122C4.5,1.676,5.676,0.5,7.122,0.5H12.5
	c1.445,0,2.622,1.176,2.622,2.622v8.068C15.122,12.635,13.945,13.811,12.5,13.811z M7.122,1.441c-0.926,0-1.68,0.754-1.68,1.68
	v8.068c0,0.927,0.754,1.68,1.68,1.68H12.5c0.928,0,1.681-0.753,1.681-1.68V3.122c0-0.926-0.753-1.68-1.681-1.68H7.122z"/>
<path fill="#EA5647" d="M4.971,16.5c-0.121,0-0.241-0.046-0.333-0.138c-0.184-0.184-0.184-0.481,0-0.666l2.689-2.688
	c0.184-0.185,0.482-0.185,0.666,0c0.184,0.184,0.184,0.481,0,0.665l-2.689,2.689C5.211,16.454,5.091,16.5,4.971,16.5z"/>
<path fill="#EA5647" d="M14.651,16.5c-0.12,0-0.24-0.046-0.332-0.138l-2.689-2.689c-0.185-0.184-0.185-0.481,0-0.665
	c0.184-0.185,0.481-0.185,0.665,0l2.689,2.688c0.184,0.185,0.184,0.482,0,0.666C14.893,16.454,14.772,16.5,14.651,16.5z"/>
<path fill="#EA5647" d="M10.887,8.971H8.735c-1.446,0-2.622-1.176-2.622-2.622v-4.84c0-0.26,0.211-0.471,0.471-0.471
	c0.26,0,0.471,0.21,0.471,0.471v4.84c0,0.927,0.754,1.681,1.681,1.681h2.151c0.927,0,1.681-0.754,1.681-1.681v-4.84
	c0-0.26,0.21-0.471,0.471-0.471c0.26,0,0.47,0.21,0.47,0.471v4.84C13.508,7.794,12.333,8.971,10.887,8.971z"/>
<path fill="#EA5647" d="M7.391,12.197c-0.704,0-1.277-0.573-1.277-1.277s0.573-1.277,1.277-1.277c0.705,0,1.277,0.573,1.277,1.277
	S8.095,12.197,7.391,12.197z M7.391,10.584c-0.185,0-0.336,0.15-0.336,0.336s0.151,0.337,0.336,0.337
	c0.186,0,0.336-0.151,0.336-0.337S7.576,10.584,7.391,10.584z"/>
<path fill="#EA5647" d="M12.23,12.197c-0.704,0-1.276-0.573-1.276-1.277s0.572-1.277,1.276-1.277s1.277,0.573,1.277,1.277
	S12.935,12.197,12.23,12.197z M12.23,10.584c-0.185,0-0.335,0.15-0.335,0.336s0.15,0.337,0.335,0.337
	c0.186,0,0.337-0.151,0.337-0.337S12.416,10.584,12.23,10.584z"/>
<path fill="#EA5647" d="M13.575,15.425H6.046c-0.26,0-0.471-0.211-0.471-0.471s0.21-0.471,0.471-0.471h7.529
	c0.261,0,0.471,0.211,0.471,0.471S13.836,15.425,13.575,15.425z"/>
</svg>
