<?xml version="1.0" encoding="utf-8"?>
<!-- Generator: Adobe Illustrator 16.0.0, SVG Export Plug-In . SVG Version: 6.00 Build 0)  -->
<!DOCTYPE svg PUBLIC "-//W3C//DTD SVG 1.1//EN" "http://www.w3.org/Graphics/SVG/1.1/DTD/svg11.dtd">
<svg version="1.1" id="Capa_1" xmlns="http://www.w3.org/2000/svg" xmlns:xlink="http://www.w3.org/1999/xlink" x="0px" y="0px"
	 width="11.101px" height="16px" viewBox="122.462 0 11.101 16" enable-background="new 122.462 0 11.101 16" xml:space="preserve">
<path fill="#EA5647" d="M126.45,3.274c0.902,0,1.637-0.734,1.637-1.637c0-0.903-0.735-1.637-1.637-1.637
	c-0.903,0-1.637,0.734-1.637,1.637C124.813,2.54,125.547,3.274,126.45,3.274z M126.45,0.785c0.47,0,0.852,0.382,0.852,0.852
	s-0.382,0.852-0.852,0.852s-0.852-0.382-0.852-0.852S125.98,0.785,126.45,0.785z M125.887,15.597c0,0.003,0,0.007,0,0.01
	c0,0.121-0.054,0.228-0.139,0.3c-0.068,0.058-0.157,0.092-0.253,0.092c-0.003,0-0.006,0-0.009,0h-1.051
	c-0.217,0-0.393-0.176-0.393-0.393s0.176-0.393,0.393-0.393h0.668v-3.538c0-0.217,0.176-0.393,0.393-0.393s0.393,0.176,0.393,0.393
	V15.597L125.887,15.597z M125.539,6.695v3.079h1.823V6.695c0-0.217,0.176-0.393,0.393-0.393s0.393,0.176,0.393,0.393v3.471
	c0,0.217-0.176,0.393-0.393,0.393c-0.003,0-0.007,0-0.01,0h-2.588c-0.003,0-0.006,0-0.01,0c-0.217,0-0.393-0.176-0.393-0.393V6.695
	c0-0.217,0.176-0.393,0.393-0.393S125.539,6.479,125.539,6.695z M133.321,7.916c-0.194-0.259-0.477-0.427-0.796-0.473
	c-0.518-0.074-1.006,0.192-1.24,0.629l-1.133-1.98c-0.609-1.065-1.512-2.288-3.101-2.288h-1.202c-1.68,0-2.201,1.365-2.447,2.391
	l-0.929,3.88c-0.051,0.21,0.08,0.422,0.29,0.473c0.211,0.05,0.423-0.08,0.474-0.291l0.929-3.88c0.217-0.906,0.527-1.43,1.01-1.656
	l0.913,2.128c0.021,0.049,0.051,0.092,0.088,0.127l0,0c0,0,0,0,0,0c0.027,0.026,0.058,0.049,0.093,0.066l0,0c0,0,0,0,0,0
	c0.012,0.006,0.023,0.011,0.036,0.016c0,0,0,0,0.001,0c0.046,0.019,0.094,0.027,0.142,0.027l0,0c0.052,0,0.104-0.01,0.154-0.032l0,0
	c0,0,0,0,0.001,0c0,0,0,0,0,0c0,0,0,0,0,0l0,0c0,0,0,0,0,0c0,0,0,0,0.001,0l0,0c0,0,0.001,0,0.001,0h0c0,0,0,0,0,0c0,0,0,0,0,0
	c0,0,0,0,0,0c0.046-0.021,0.086-0.049,0.119-0.083c0,0,0,0,0,0c0,0,0,0,0,0c0.029-0.03,0.054-0.065,0.073-0.104l0,0c0,0,0,0,0,0
	c0.002-0.005,0.005-0.011,0.007-0.016l0.92-2.146c0.628,0.225,1.174,0.791,1.739,1.778l1.575,2.753l-0.905,6.317
	c-0.03,0.214,0.119,0.414,0.333,0.444c0.019,0.002,0.038,0.004,0.056,0.004c0.192,0,0.36-0.141,0.388-0.337l0.914-6.38
	c0.013-0.042,0.02-0.084,0.019-0.128l0.082-0.574c0.033-0.232,0.249-0.394,0.481-0.361c0.111,0.016,0.21,0.075,0.279,0.167
	c0.069,0.091,0.098,0.203,0.082,0.314c-0.031,0.215,0.119,0.414,0.333,0.444c0.215,0.031,0.414-0.118,0.444-0.333
	C133.597,8.494,133.515,8.175,133.321,7.916z M126.45,5.699l-0.477-1.11h0.953L126.45,5.699z M128.859,15.607
	c0,0.217-0.176,0.393-0.393,0.393h-1.052c-0.003,0-0.006,0-0.009,0c-0.217,0-0.393-0.176-0.393-0.393v-3.931
	c0-0.217,0.176-0.393,0.393-0.393s0.393,0.176,0.393,0.393v3.538h0.668C128.684,15.214,128.859,15.39,128.859,15.607z"/>
</svg>
