<?xml version="1.0" encoding="utf-8"?>
<!-- Generator: Adobe Illustrator 16.0.0, SVG Export Plug-In . SVG Version: 6.00 Build 0)  -->
<!DOCTYPE svg PUBLIC "-//W3C//DTD SVG 1.1//EN" "http://www.w3.org/Graphics/SVG/1.1/DTD/svg11.dtd">
<svg version="1.1" id="Layer_1" xmlns="http://www.w3.org/2000/svg" xmlns:xlink="http://www.w3.org/1999/xlink" x="0px" y="0px"
	 width="14.995px" height="16px" viewBox="112.5 100 14.995 16" enable-background="new 112.5 100 14.995 16" xml:space="preserve">
<path fill="#EA5647" d="M125.496,100c-1.096,0-2,0.903-2,2c0,1.096,0.903,1.999,2,1.999c1.096,0,1.999-0.903,1.999-1.999
	C127.495,100.903,126.591,100,125.496,100z M114.854,100.146l-0.771,1.062l4.207,3.062c-0.073,0.078-0.159,0.151-0.229,0.229
	c-0.864,0.945-0.69,2.476,0.375,3.186l2.458,1.625l-2.541,1.5l-5.186-2.978l-0.667,1.166l11.684,6.706
	c0.021,0.008,0.042,0.016,0.062,0.021c0,0,0.471,0.229,1.083,0.271c0.612,0.042,1.481-0.135,2.041-0.896l-1.062-0.791
	c-0.245,0.333-0.528,0.377-0.875,0.354c-0.313-0.021-0.534-0.104-0.583-0.125l-0.063-0.021l-5.123-2.937l1.895-1.125
	c0.82-0.487,0.856-1.718,0.063-2.249l-2.437-1.625c-0.409-0.273-0.477-0.825-0.146-1.187c0.351-0.385,0.742-0.799,1.104-1.146
	c0.521-0.5,1.206-0.729,1.75-0.833c0.146-0.029,0.25,0.07,0.25,0.229l0.021,2.666v0.313l0.271,0.208l2.645,2.02l0.812-1.042
	l-2.395-1.833l-0.021-2.333c-0.005-0.96-0.898-1.726-1.854-1.541c-0.708,0.138-1.624,0.448-2.395,1.187L114.854,100.146z
	 M125.496,101.333c0.375,0,0.666,0.292,0.666,0.667c0,0.375-0.292,0.666-0.666,0.666c-0.375,0-0.667-0.292-0.667-0.666
	C124.829,101.625,125.121,101.333,125.496,101.333z"/>
</svg>
