<?xml version="1.0" encoding="utf-8"?>
<!-- Generator: Adobe Illustrator 16.0.0, SVG Export Plug-In . SVG Version: 6.00 Build 0)  -->
<!DOCTYPE svg PUBLIC "-//W3C//DTD SVG 1.1//EN" "http://www.w3.org/Graphics/SVG/1.1/DTD/svg11.dtd">
<svg version="1.1" id="Layer_1" xmlns="http://www.w3.org/2000/svg" xmlns:xlink="http://www.w3.org/1999/xlink" x="0px" y="0px"
	 width="13.743px" height="16px" viewBox="42.959 7.998 13.743 16" enable-background="new 42.959 7.998 13.743 16"
	 xml:space="preserve">
<g id="_x23_000000ff">
	<path fill="#EA5647" d="M49.746,8.014c0.157-0.062,0.346,0.07,0.341,0.239c0.004,0.603,0,1.207,0.002,1.811
		c0.003,0.085-0.015,0.178-0.083,0.236c-0.104,0.103-0.294,0.088-0.379-0.032c-0.049-0.057-0.055-0.134-0.055-0.206
		c0.001-0.591,0-1.183,0-1.774C49.563,8.17,49.632,8.05,49.746,8.014z"/>
	<path fill="#EA5647" d="M45.068,9.95c0.099-0.039,0.213-0.003,0.284,0.073c0.426,0.426,0.851,0.852,1.276,1.279
		c0.065,0.062,0.109,0.152,0.092,0.243c-0.017,0.129-0.146,0.23-0.275,0.216c-0.09-0.003-0.158-0.069-0.217-0.129
		c-0.417-0.422-0.839-0.839-1.255-1.261C44.84,10.248,44.897,10.004,45.068,9.95z"/>
	<path fill="#EA5647" d="M54.423,9.949c0.147-0.058,0.325,0.052,0.341,0.208c0.017,0.097-0.036,0.187-0.104,0.25
		c-0.426,0.424-0.85,0.851-1.276,1.274c-0.089,0.097-0.253,0.109-0.353,0.021c-0.118-0.092-0.123-0.286-0.011-0.385
		c0.424-0.426,0.852-0.851,1.276-1.278C54.333,10.003,54.373,9.966,54.423,9.949z"/>
	<path fill="#EA5647" d="M49.417,11.006c0.859-0.093,1.749,0.108,2.479,0.573c1.124,0.696,1.849,1.998,1.818,3.322
		c-0.011,0.161-0.197,0.272-0.345,0.21c-0.111-0.039-0.175-0.156-0.168-0.27c-0.004-0.796-0.305-1.585-0.83-2.184
		c-0.565-0.653-1.388-1.075-2.25-1.145c-0.809-0.073-1.64,0.162-2.291,0.648c-0.803,0.59-1.324,1.551-1.362,2.548
		c-0.007,0.114,0.014,0.248-0.075,0.337c-0.097,0.109-0.286,0.107-0.38-0.004c-0.091-0.098-0.062-0.242-0.061-0.363
		c0.042-0.93,0.436-1.837,1.084-2.503C47.661,11.522,48.519,11.101,49.417,11.006z"/>
	<path fill="#EA5647" d="M43.135,14.626c0.059-0.018,0.122-0.015,0.182-0.016c0.581,0.002,1.163-0.002,1.744,0.001
		c0.165-0.012,0.307,0.161,0.261,0.321c-0.027,0.116-0.142,0.201-0.261,0.194c-0.604,0.001-1.208,0-1.811,0.001
		c-0.117,0.01-0.238-0.058-0.275-0.172C42.925,14.826,43.002,14.667,43.135,14.626z"/>
	<path fill="#EA5647" d="M54.518,14.623c0.05-0.012,0.102-0.012,0.154-0.012c0.581,0.001,1.162,0,1.743,0
		c0.125-0.01,0.251,0.072,0.28,0.196c0.044,0.153-0.085,0.324-0.246,0.318c-0.615,0.003-1.229,0.001-1.844,0.001
		c-0.12,0.008-0.238-0.077-0.264-0.195C54.304,14.803,54.388,14.657,54.518,14.623z"/>
	<path fill="#EA5647" d="M48.533,16.375c0.25-0.438,0.733-0.731,1.238-0.747c0.121,0,0.266-0.021,0.359,0.074
		c0.076,0.064,0.066,0.174,0.114,0.256c-0.008,0-0.024,0-0.032,0.001c-0.058,0.104-0.152,0.2-0.282,0.183
		c-0.353-0.028-0.716,0.132-0.913,0.43c-0.253,0.355-0.222,0.877,0.07,1.202c0.274,0.325,0.769,0.434,1.153,0.248
		c0.323-0.146,0.552-0.478,0.572-0.832c0.015-0.141-0.029-0.277-0.042-0.416c-0.009-0.107,0.071-0.193,0.16-0.24
		c0.13-0.046,0.291,0.019,0.336,0.152c0.073,0.227,0.081,0.473,0.041,0.708c-0.076,0.437-0.359,0.831-0.747,1.045
		c-0.378,0.214-0.852,0.249-1.257,0.093c-0.404-0.15-0.736-0.484-0.882-0.891C48.269,17.23,48.31,16.752,48.533,16.375z"/>
	<path fill="#EA5647" d="M43.634,16.188c0.097-0.082,0.252-0.073,0.34,0.017c0.225,0.219,0.444,0.444,0.668,0.665
		c0.934,0,1.868-0.001,2.802,0c0.133-0.011,0.263,0.092,0.276,0.227c0.021,0.14-0.096,0.282-0.239,0.286
		c-0.29,0.008-0.58,0-0.87,0.003c-0.47,0.469-0.939,0.938-1.41,1.406c-0.089,0.099-0.253,0.115-0.355,0.026
		c-0.115-0.087-0.127-0.274-0.023-0.375c0.35-0.354,0.705-0.704,1.057-1.057c-0.413,0-0.825,0-1.238,0
		c-0.222,0.22-0.441,0.443-0.665,0.662c-0.088,0.092-0.245,0.102-0.343,0.02c-0.11-0.084-0.131-0.262-0.036-0.366
		c0.099-0.11,0.209-0.209,0.312-0.316c-0.231-0.002-0.463,0.003-0.694-0.002c-0.137,0.004-0.259-0.119-0.256-0.256
		c-0.004-0.138,0.119-0.263,0.257-0.257c0.231-0.004,0.463,0.001,0.695-0.001c-0.104-0.107-0.214-0.207-0.314-0.318
		C43.504,16.448,43.524,16.271,43.634,16.188z"/>
	<path fill="#EA5647" d="M55.687,16.208c0.099-0.107,0.286-0.101,0.378,0.012c0.082,0.091,0.083,0.242,0.001,0.333
		c-0.099,0.11-0.209,0.209-0.312,0.316c0.231,0.002,0.462-0.002,0.692,0.001c0.138-0.004,0.259,0.122,0.255,0.259
		c0.001,0.135-0.119,0.256-0.254,0.254c-0.23,0.005-0.461,0-0.692,0.002c0.116,0.133,0.273,0.236,0.357,0.393
		c0.097,0.225-0.203,0.451-0.391,0.296c-0.24-0.221-0.462-0.461-0.696-0.689c-0.413,0-0.827,0-1.24,0
		c0.35,0.353,0.706,0.701,1.055,1.055c0.113,0.108,0.089,0.313-0.043,0.394c-0.104,0.072-0.252,0.048-0.335-0.045
		c-0.47-0.467-0.938-0.936-1.408-1.404c-0.29-0.003-0.581,0.005-0.871-0.003c-0.178-0.002-0.299-0.219-0.211-0.374
		c0.05-0.104,0.169-0.149,0.28-0.14c0.924,0.001,1.848,0.001,2.771,0.001C55.245,16.649,55.464,16.427,55.687,16.208z"/>
	<path fill="#EA5647" d="M47.976,18.623c0.068-0.07,0.176-0.097,0.269-0.063c0.114,0.038,0.19,0.163,0.17,0.281
		c-0.009,0.082-0.069,0.143-0.124,0.198c-0.185,0.182-0.368,0.367-0.553,0.55c-0.001,0.652,0,1.305,0,1.958
		c0.003,0.087-0.017,0.18-0.086,0.239c-0.105,0.101-0.292,0.083-0.377-0.036c-0.047-0.056-0.054-0.131-0.053-0.201
		c0-0.481,0-0.962,0-1.443c-0.269,0.267-0.535,0.536-0.804,0.801c-0.031,0.036-0.081,0.067-0.073,0.122
		c-0.003,0.302,0.004,0.604-0.002,0.907c-0.003,0.13-0.122,0.242-0.252,0.241c-0.133,0.005-0.258-0.109-0.259-0.243
		c-0.007-0.145,0-0.29-0.002-0.436c-0.16,0.157-0.316,0.317-0.476,0.474c-0.059,0.062-0.145,0.1-0.231,0.085
		c-0.135-0.016-0.239-0.152-0.219-0.286c0.005-0.073,0.053-0.132,0.103-0.181c0.154-0.153,0.307-0.306,0.46-0.459
		c-0.146-0.003-0.293,0.004-0.44-0.002c-0.133-0.002-0.246-0.125-0.242-0.257c-0.002-0.131,0.11-0.251,0.241-0.254
		c0.321-0.009,0.642,0.002,0.962-0.005c0.29-0.293,0.583-0.583,0.874-0.875c-0.504-0.003-1.008,0.003-1.511-0.003
		c-0.142-0.003-0.257-0.143-0.239-0.282c0.01-0.134,0.138-0.239,0.271-0.231c0.666-0.002,1.331,0,1.996-0.001
		C47.577,19.022,47.774,18.82,47.976,18.623z"/>
	<path fill="#EA5647" d="M51.25,18.77c0.014-0.139,0.155-0.247,0.293-0.223c0.089,0.01,0.152,0.079,0.212,0.139
		c0.177,0.179,0.356,0.355,0.534,0.534c0.665,0,1.33-0.001,1.995,0.001c0.144-0.009,0.277,0.118,0.27,0.263
		c0,0.14-0.129,0.26-0.269,0.251c-0.493,0.001-0.985,0-1.478,0c0.29,0.292,0.584,0.581,0.873,0.875
		c0.31,0.007,0.62-0.001,0.93,0.004c0.118-0.005,0.233,0.077,0.261,0.193c0.041,0.137-0.058,0.295-0.2,0.316
		c-0.156,0.014-0.313,0.002-0.469,0.006c0.147,0.148,0.295,0.295,0.444,0.442c0.055,0.055,0.112,0.116,0.119,0.197
		c0.023,0.147-0.105,0.294-0.254,0.29c-0.084,0.004-0.157-0.045-0.212-0.103c-0.153-0.153-0.306-0.307-0.459-0.46
		c-0.003,0.146,0.005,0.293-0.003,0.44c-0.003,0.145-0.151,0.263-0.293,0.237c-0.128-0.016-0.228-0.139-0.22-0.267
		c-0.003-0.292,0.001-0.584-0.001-0.876c0.009-0.047-0.029-0.078-0.057-0.108c-0.275-0.271-0.546-0.545-0.819-0.816
		c-0.002,0.492,0.001,0.984-0.001,1.476c0.011,0.153-0.136,0.292-0.289,0.268c-0.13-0.013-0.234-0.137-0.226-0.267
		c-0.002-0.665,0.001-1.331-0.001-1.996c-0.197-0.192-0.39-0.389-0.585-0.583C51.279,18.944,51.237,18.858,51.25,18.77z"/>
	<path fill="#EA5647" d="M49.575,19.479c0.001-0.143,0.144-0.261,0.285-0.241c0.121,0.011,0.225,0.119,0.227,0.242
		c0.007,0.29,0,0.58,0.003,0.87c0.475,0.474,0.952,0.946,1.423,1.422c0.13,0.125,0.07,0.368-0.102,0.419
		c-0.106,0.041-0.223-0.006-0.295-0.088c-0.342-0.342-0.684-0.684-1.027-1.024c-0.001,0.413,0,0.826,0,1.24
		c0.22,0.222,0.445,0.439,0.663,0.663c0.104,0.1,0.097,0.284-0.014,0.376c-0.09,0.081-0.239,0.084-0.331,0.003
		c-0.111-0.098-0.209-0.21-0.318-0.311c-0.003,0.23,0.003,0.461-0.002,0.692c0.003,0.137-0.121,0.259-0.257,0.255
		c-0.136,0.003-0.26-0.118-0.256-0.255c-0.005-0.232,0-0.463-0.002-0.695c-0.107,0.103-0.207,0.213-0.317,0.312
		c-0.103,0.093-0.28,0.073-0.364-0.036c-0.082-0.097-0.074-0.253,0.018-0.341c0.219-0.223,0.444-0.44,0.664-0.663
		c0-0.414,0-0.827,0-1.24c-0.354,0.351-0.703,0.706-1.058,1.055c-0.134,0.141-0.398,0.056-0.428-0.135
		c-0.038-0.147,0.084-0.254,0.179-0.344c0.436-0.435,0.872-0.871,1.307-1.307C49.575,20.059,49.568,19.769,49.575,19.479z"/>
</g>
</svg>
