<?xml version="1.0" encoding="utf-8"?>
<!-- Generator: Adobe Illustrator 16.0.0, SVG Export Plug-In . SVG Version: 6.00 Build 0)  -->
<!DOCTYPE svg PUBLIC "-//W3C//DTD SVG 1.1//EN" "http://www.w3.org/Graphics/SVG/1.1/DTD/svg11.dtd">
<svg version="1.1" id="Layer_1" xmlns="http://www.w3.org/2000/svg" xmlns:xlink="http://www.w3.org/1999/xlink" x="0px" y="0px"
	 width="12.749px" height="16px" viewBox="165.917 99.25 12.749 16" enable-background="new 165.917 99.25 12.749 16"
	 xml:space="preserve">
<path fill="#F85241" d="M172.291,107.123c-2.17,0-3.937-1.766-3.937-3.937s1.766-3.937,3.937-3.937s3.937,1.766,3.937,3.937
	S174.461,107.123,172.291,107.123z M172.291,100.622c-1.414,0-2.565,1.151-2.565,2.565c0,1.415,1.151,2.565,2.565,2.565
	c1.415,0,2.565-1.151,2.565-2.565C174.856,101.772,173.706,100.622,172.291,100.622z"/>
<path fill="#F85241" d="M177.98,115.25h-11.378c-0.378,0-0.686-0.307-0.686-0.686c0-3.515,2.86-6.375,6.375-6.375
	s6.375,2.859,6.375,6.375C178.666,114.943,178.358,115.25,177.98,115.25z M167.335,113.878h9.912
	c-0.335-2.436-2.43-4.317-4.956-4.317S167.67,111.443,167.335,113.878z"/>
</svg>
