<?xml version="1.0" encoding="utf-8"?>
<!-- Generator: Adobe Illustrator 16.0.0, SVG Export Plug-In . SVG Version: 6.00 Build 0)  -->
<!DOCTYPE svg PUBLIC "-//W3C//DTD SVG 1.1//EN" "http://www.w3.org/Graphics/SVG/1.1/DTD/svg11.dtd">
<svg version="1.1" id="Icons" xmlns="http://www.w3.org/2000/svg" xmlns:xlink="http://www.w3.org/1999/xlink" x="0px" y="0px"
	 width="17.17px" height="16px" viewBox="2.5 1 17.17 16" enable-background="new 2.5 1 17.17 16" xml:space="preserve">
<path fill="#EA5647" d="M15.012,14.497c-0.474,0-0.946-0.172-1.306-0.515c-0.361-0.344-0.948-0.344-1.311,0
	c-0.719,0.688-1.891,0.687-2.609,0c-0.362-0.345-0.95-0.346-1.311,0c-0.719,0.687-1.889,0.687-2.609,0
	c-0.361-0.345-0.949-0.346-1.311,0c-0.188,0.179-0.486,0.172-0.665-0.016c-0.179-0.188-0.172-0.486,0.016-0.666
	c0.72-0.687,1.89-0.685,2.609,0c0.361,0.346,0.949,0.345,1.31,0.001c0.72-0.687,1.892-0.686,2.609-0.001
	c0.361,0.346,0.948,0.346,1.312,0.001c0.719-0.688,1.89-0.687,2.608-0.001c0.362,0.346,0.949,0.346,1.312,0.001
	c0.719-0.686,1.889-0.685,2.608-0.001c0.188,0.18,0.196,0.478,0.017,0.666s-0.477,0.194-0.665,0.016
	c-0.361-0.343-0.948-0.343-1.312,0C15.956,14.325,15.483,14.497,15.012,14.497z"/>
<path fill="#EA5647" d="M15.723,17c-0.522,0-1.046-0.165-1.451-0.496c-0.469-0.376-1.256-0.377-1.722,0
	c-0.821,0.662-2.099,0.66-2.91,0c-0.469-0.377-1.258-0.379-1.722,0c-0.821,0.661-2.098,0.661-2.91,0
	c-0.468-0.377-1.258-0.379-1.721,0c-0.201,0.163-0.499,0.134-0.662-0.068c-0.164-0.201-0.134-0.497,0.067-0.661
	c0.811-0.661,2.089-0.663,2.908-0.002c0.466,0.38,1.255,0.38,1.725,0c0.811-0.658,2.088-0.66,2.906,0
	c0.467,0.38,1.256,0.378,1.727,0c0.809-0.658,2.088-0.66,2.905,0c0.467,0.38,1.256,0.379,1.725,0.001
	c0.811-0.662,2.087-0.661,2.906-0.001c0.202,0.163,0.234,0.459,0.072,0.661c-0.163,0.204-0.462,0.233-0.662,0.072
	c-0.472-0.38-1.26-0.379-1.724-0.002C16.771,16.835,16.246,17,15.723,17z"/>
<path fill="#EA5647" d="M11.085,3.813c-0.26,0-0.47-0.21-0.47-0.47V1.471c0-0.26,0.21-0.471,0.47-0.471
	c0.261,0,0.471,0.21,0.471,0.471v1.873C11.556,3.603,11.346,3.813,11.085,3.813z"/>
<path fill="#EA5647" d="M6.672,5.643c-0.121,0-0.241-0.046-0.333-0.138L5.016,4.181c-0.184-0.184-0.184-0.481,0-0.666
	c0.184-0.184,0.482-0.184,0.666,0l1.323,1.324c0.184,0.184,0.184,0.481,0,0.665C6.913,5.597,6.792,5.643,6.672,5.643z"/>
<path fill="#EA5647" d="M4.843,10.056H2.971c-0.26,0-0.471-0.21-0.471-0.471c0-0.26,0.21-0.47,0.471-0.47h1.873
	c0.26,0,0.47,0.21,0.47,0.47C5.313,9.846,5.103,10.056,4.843,10.056z"/>
<path fill="#EA5647" d="M19.199,10.056h-1.872c-0.26,0-0.471-0.21-0.471-0.471c0-0.26,0.211-0.47,0.471-0.47h1.872
	c0.26,0,0.471,0.21,0.471,0.47C19.67,9.846,19.459,10.056,19.199,10.056z"/>
<path fill="#EA5647" d="M15.498,5.643c-0.12,0-0.24-0.046-0.332-0.138c-0.184-0.184-0.184-0.481,0-0.665l1.323-1.324
	c0.184-0.184,0.481-0.184,0.665,0c0.184,0.184,0.184,0.482,0,0.666l-1.323,1.323C15.739,5.597,15.619,5.643,15.498,5.643z"/>
<path fill="#EA5647" d="M15.03,11.928H7.14c-0.182,0-0.348-0.104-0.426-0.269c-0.312-0.66-0.469-1.357-0.469-2.074
	c0-2.668,2.171-4.84,4.84-4.84c2.669,0,4.84,2.171,4.84,4.84c0,0.717-0.158,1.414-0.47,2.074
	C15.377,11.823,15.212,11.928,15.03,11.928z M7.45,10.987h7.27c0.176-0.451,0.264-0.922,0.264-1.402
	c0-2.149-1.748-3.899-3.898-3.899c-2.149,0-3.899,1.75-3.899,3.899C7.186,10.065,7.275,10.536,7.45,10.987z"/>
</svg>
