<?xml version="1.0" encoding="utf-8"?>
<!-- Generator: Adobe Illustrator 16.0.0, SVG Export Plug-In . SVG Version: 6.00 Build 0)  -->
<!DOCTYPE svg PUBLIC "-//W3C//DTD SVG 1.1//EN" "http://www.w3.org/Graphics/SVG/1.1/DTD/svg11.dtd">
<svg version="1.1" id="_x32_" xmlns="http://www.w3.org/2000/svg" xmlns:xlink="http://www.w3.org/1999/xlink" x="0px" y="0px"
	 width="14.443px" height="16px" viewBox="38.911 0 14.443 16" enable-background="new 38.911 0 14.443 16" xml:space="preserve">
<g>
	<path fill="#EA5647" d="M47.515,2.935c0.811,0,1.467-0.657,1.468-1.467C48.982,0.657,48.326,0,47.515,0
		c-0.811,0-1.467,0.657-1.467,1.468C46.048,2.278,46.705,2.935,47.515,2.935z M47.515,0.587c0.486,0.001,0.88,0.395,0.88,0.88
		c0,0.486-0.394,0.88-0.88,0.881c-0.486-0.001-0.879-0.395-0.88-0.881C46.636,0.981,47.029,0.588,47.515,0.587z"/>
	<path fill="#EA5647" d="M41.725,5.11c0.113,0.136,0.266,0.233,0.438,0.288l0,0l1.542,0.517l0.004,0.001
		c0.178,0.054,0.363,0.082,0.547,0.082c0.172,0,0.344-0.023,0.51-0.071l1.109-0.313l0.182,0.862L44.51,7.229
		c-0.493,0.191-0.878,0.59-1.049,1.093l-0.962,2.833l-0.001,0.004c-0.028,0.092-0.042,0.186-0.042,0.278
		c0,0.41,0.265,0.787,0.677,0.913c0.093,0.028,0.189,0.043,0.283,0.043c0.198,0,0.39-0.066,0.545-0.182
		c0.15-0.112,0.267-0.269,0.344-0.452v0l1.24-2.516l1.349-0.729l-0.422,0.864l-0.392,2.814l0-0.001
		c-0.007,0.046-0.01,0.092-0.01,0.136c0,0.468,0.343,0.875,0.819,0.944c0.052,0.007,0.103,0.011,0.155,0.011
		c0.215,0.001,0.43-0.071,0.595-0.215c0.163-0.141,0.272-0.342,0.324-0.573h0l0.666-2.567l0.877-1.469
		c0.345-0.479,0.527-1.05,0.527-1.631c0-0.181-0.019-0.362-0.054-0.543h0l-0.088-0.642l0.569,0.248l1.003,1.463
		c0.146,0.277,0.429,0.442,0.726,0.442c0.114,0,0.23-0.024,0.34-0.074c0.303-0.138,0.483-0.436,0.482-0.749
		c0-0.112-0.023-0.227-0.072-0.334h0l-0.753-1.742l-0.002-0.005c-0.158-0.333-0.431-0.6-0.769-0.75l-1.396-0.62
		c-0.57-0.253-1.187-0.383-1.807-0.383c-0.155,0-0.311,0.008-0.466,0.025l-1.061,0.112c-0.432,0.045-0.854,0.154-1.254,0.322
		l-1.308,0.39L42.5,3.793l0,0.001c-0.047-0.008-0.094-0.015-0.14-0.015c-0.384,0-0.725,0.269-0.805,0.658
		c-0.011,0.055-0.017,0.109-0.017,0.164C41.538,4.794,41.61,4.973,41.725,5.11z M42.13,4.557L42.13,4.557
		c0.022-0.112,0.121-0.189,0.229-0.189l0.047,0.004l0.012,0.003l0.012,0.001l1.744,0.208l1.447-0.431l0.016-0.006
		c0.353-0.151,0.728-0.248,1.109-0.288l1.062-0.112c0.135-0.014,0.27-0.021,0.405-0.021c0.539,0,1.074,0.113,1.569,0.333l1.397,0.62
		c0.209,0.093,0.377,0.257,0.475,0.464l0.748,1.73l0.001,0.003c0.015,0.033,0.021,0.064,0.021,0.097
		c0,0.089-0.051,0.175-0.138,0.214c-0.032,0.015-0.064,0.021-0.097,0.021c-0.089,0-0.175-0.051-0.214-0.138l-0.01-0.023L50.85,5.419
		l-1.681-0.731l0.23,1.686l0.002,0.01c0.03,0.147,0.045,0.296,0.045,0.444c0,0.465-0.147,0.923-0.427,1.304l-0.008,0.011
		l-0.928,1.556l-0.688,2.654l-0.001,0.006c-0.031,0.139-0.083,0.218-0.138,0.265c-0.055,0.046-0.117,0.071-0.21,0.072l-0.072-0.005
		c-0.183-0.026-0.314-0.184-0.314-0.363l0.003-0.052l0-0.003l0.379-2.719l0.555-1.137c0.031-0.064,0.047-0.133,0.047-0.202
		c0-0.116-0.044-0.229-0.126-0.316c-0.089-0.093-0.21-0.144-0.334-0.144c-0.06,0-0.122,0.012-0.18,0.037l-0.013,0.005l-1.889,1.021
		l-1.328,2.695l-0.004,0.01c-0.042,0.104-0.099,0.175-0.159,0.22c-0.061,0.044-0.123,0.065-0.195,0.066
		c-0.035,0-0.072-0.005-0.113-0.018c-0.158-0.047-0.26-0.194-0.26-0.351c0-0.035,0.005-0.07,0.016-0.105l0.958-2.821
		c0.117-0.344,0.382-0.616,0.723-0.742l0.014-0.005l1.971-0.959l-0.405-1.926l-1.714,0.485c-0.115,0.032-0.232,0.048-0.351,0.048
		c-0.127,0-0.253-0.019-0.376-0.056l-1.534-0.514L42.342,4.84c-0.075-0.023-0.131-0.063-0.167-0.105
		c-0.035-0.043-0.05-0.084-0.05-0.133L42.13,4.557z"/>
	<path fill="#EA5647" d="M41.556,4.435l-0.001,0.004c0,0,0-0.001,0-0.001v0L41.556,4.435z"/>
	<path fill="#EA5647" d="M47.517,7.897L47.517,7.897C47.517,7.897,47.517,7.897,47.517,7.897L47.517,7.897z"/>
	<path fill="#EA5647" d="M53.333,15.06c-0.095-0.312-0.302-0.621-0.585-0.947c-0.853-0.968-2.442-2.066-4.144-2.692l-0.202,0.551
		c1.067,0.391,2.11,0.996,2.911,1.617c0.401,0.31,0.741,0.624,0.993,0.912c0.21,0.237,0.352,0.457,0.425,0.627
		c-0.008,0.007-0.017,0.015-0.029,0.023c-0.088,0.064-0.292,0.141-0.574,0.188c-0.282,0.048-0.641,0.074-1.052,0.074
		c-1.75,0.001-4.438-0.463-6.647-1.348c-1.641-0.656-2.892-1.446-3.72-2.205c-0.415-0.379-0.723-0.75-0.922-1.086
		c-0.201-0.336-0.29-0.635-0.289-0.866c0-0.073,0.011-0.138,0.026-0.199c0.051-0.049,0.131-0.097,0.252-0.132
		c0.148-0.043,0.344-0.065,0.56-0.064c0.432,0,0.937,0.083,1.327,0.167c0.195,0.042,0.363,0.084,0.48,0.116
		c0.059,0.016,0.105,0.029,0.137,0.038c0.032,0.009,0.046,0.014,0.047,0.014l0.171-0.562c-0.005-0.001-0.298-0.091-0.711-0.18
		c-0.415-0.089-0.948-0.18-1.451-0.18c-0.252,0-0.497,0.022-0.723,0.088c-0.224,0.065-0.44,0.178-0.59,0.377L38.994,9.43
		l-0.015,0.045c-0.046,0.138-0.068,0.285-0.068,0.434c0.001,0.375,0.134,0.767,0.372,1.166c0.357,0.599,0.954,1.223,1.779,1.831
		c0.825,0.607,1.878,1.195,3.15,1.704c2.297,0.917,5.02,1.389,6.865,1.39c0.581,0,1.075-0.046,1.459-0.15
		c0.193-0.053,0.36-0.12,0.502-0.218c0.14-0.096,0.264-0.242,0.301-0.43l0.014-0.072L53.333,15.06z"/>
</g>
</svg>
