<?xml version="1.0" encoding="utf-8"?>
<!-- Generator: Adobe Illustrator 16.0.0, SVG Export Plug-In . SVG Version: 6.00 Build 0)  -->
<!DOCTYPE svg PUBLIC "-//W3C//DTD SVG 1.1//EN" "http://www.w3.org/Graphics/SVG/1.1/DTD/svg11.dtd">
<svg version="1.1" id="Layer_1" xmlns="http://www.w3.org/2000/svg" xmlns:xlink="http://www.w3.org/1999/xlink" x="0px" y="0px"
	 width="10.103px" height="16px" viewBox="174.994 65.916 10.103 16" enable-background="new 174.994 65.916 10.103 16"
	 xml:space="preserve">
<path fill="#F85241" d="M179.672,70.604c-1.293,0-2.345-1.052-2.345-2.345c0-1.292,1.052-2.344,2.345-2.344
	c1.292,0,2.344,1.052,2.344,2.344C182.016,69.553,180.964,70.604,179.672,70.604z M179.672,66.863c-0.771,0-1.397,0.627-1.397,1.397
	s0.626,1.397,1.397,1.397c0.77,0,1.396-0.627,1.396-1.397S180.441,66.863,179.672,66.863z"/>
<path fill="#F85241" d="M178.805,73.563l0.558,0.055l0,0L178.805,73.563z M179.439,78.588c0.165,0.263,0.512,0.342,0.774,0.177
	c0.262-0.165,0.341-0.512,0.177-0.774L179.439,78.588z M181.366,81.653c0.165,0.263,0.511,0.342,0.773,0.177
	c0.263-0.166,0.342-0.512,0.177-0.774L181.366,81.653z M175.783,74.72l0.548,0.122L175.783,74.72z M175.008,75.621
	c-0.066,0.302,0.123,0.603,0.427,0.67c0.302,0.066,0.602-0.124,0.67-0.427L175.008,75.621z M183.989,74.803l-0.178-0.532l0,0
	L183.989,74.803z M184.712,75.152c0.294-0.098,0.453-0.415,0.355-0.71c-0.098-0.294-0.416-0.453-0.71-0.355L184.712,75.152z
	 M180.48,72.379l-0.04,0.561l0,0L180.48,72.379z M181.855,73.632l-0.544,0.136l0,0L181.855,73.632z M181.796,73.406l-0.534,0.175
	l0,0L181.796,73.406z M176.567,72.705l0.353,0.438l0,0L176.567,72.705z M181.936,73.928l0.53-0.184l0,0L181.936,73.928z
	 M183.695,74.895l-0.13-0.546l0,0L183.695,74.895z M181.611,79.934c-0.165-0.263-0.512-0.342-0.774-0.176
	c-0.263,0.164-0.341,0.511-0.177,0.773L181.611,79.934z M178.365,72.32l-0.119,1.188l1.117,0.111l0.118-1.187L178.365,72.32z
	 M178.923,71.814h-0.218v1.123h0.218V71.814z M175.235,74.598l-0.228,1.023l1.096,0.243l0.228-1.022L175.235,74.598z
	 M178.923,72.938h1.324v-1.123h-1.324V72.938z M184.166,75.335l0.546-0.183l-0.355-1.065l-0.546,0.183L184.166,75.335z
	 M180.247,72.938c0.128,0,0.165,0,0.193,0.002l0.08-1.119c-0.078-0.006-0.162-0.005-0.273-0.005V72.938z M182.4,73.495
	c-0.026-0.107-0.047-0.189-0.071-0.264l-1.066,0.35c0.009,0.027,0.018,0.063,0.05,0.187L182.4,73.495z M180.44,72.939
	c0.379,0.027,0.703,0.28,0.821,0.642l1.067-0.35c-0.261-0.794-0.976-1.352-1.809-1.411L180.44,72.939z M178.705,71.814
	c-0.562,0-1.032-0.001-1.413,0.046c-0.396,0.048-0.758,0.152-1.074,0.406l0.702,0.876c0.093-0.074,0.225-0.135,0.507-0.168
	c0.298-0.036,0.688-0.037,1.278-0.037V71.814z M176.331,74.842c0.128-0.576,0.214-0.958,0.314-1.24
	c0.095-0.269,0.181-0.384,0.274-0.459l-0.702-0.876c-0.317,0.255-0.498,0.585-0.632,0.96c-0.128,0.362-0.229,0.822-0.351,1.37
	L176.331,74.842z M181.312,73.768c0.036,0.145,0.063,0.252,0.095,0.346l1.06-0.369c-0.012-0.033-0.023-0.08-0.065-0.249
	L181.312,73.768z M183.811,74.27c-0.164,0.055-0.211,0.069-0.245,0.078l0.259,1.092c0.095-0.022,0.2-0.058,0.342-0.105
	L183.811,74.27z M181.406,74.111c0.346,0.998,1.391,1.572,2.418,1.328l-0.259-1.092c-0.467,0.11-0.941-0.149-1.1-0.604
	L181.406,74.111z M178.246,73.508c-0.123,1.228-0.203,1.969-0.035,2.688l1.092-0.257c-0.116-0.495-0.07-1.019,0.06-2.321
	L178.246,73.508z M180.391,77.991c-0.697-1.108-0.971-1.557-1.087-2.052l-1.093,0.257c0.17,0.72,0.572,1.347,1.229,2.392
	L180.391,77.991z M180.66,80.531l0.706,1.122l0.95-0.597l-0.705-1.123L180.66,80.531z"/>
<path fill="#F85241" d="M175.556,81.828c-0.091,0-0.182-0.025-0.263-0.079c-0.218-0.146-0.276-0.439-0.132-0.657l2.245-3.366
	c0.145-0.218,0.438-0.277,0.656-0.132s0.276,0.439,0.132,0.657l-2.245,3.366C175.858,81.754,175.708,81.828,175.556,81.828z"/>
</svg>
