<?xml version="1.0" encoding="utf-8"?>
<!-- Generator: Adobe Illustrator 16.0.0, SVG Export Plug-In . SVG Version: 6.00 Build 0)  -->
<!DOCTYPE svg PUBLIC "-//W3C//DTD SVG 1.1//EN" "http://www.w3.org/Graphics/SVG/1.1/DTD/svg11.dtd">
<svg version="1.1" id="Layer_1" xmlns="http://www.w3.org/2000/svg" xmlns:xlink="http://www.w3.org/1999/xlink" x="0px" y="0px"
	 width="11.227px" height="16px" viewBox="119.333 0 11.227 16" enable-background="new 119.333 0 11.227 16" xml:space="preserve">
<g>
	<g>
		<path fill="#EA5647" d="M130.28,11.653c-0.053-0.106-0.16-0.187-0.267-0.187H119.88c-0.107,0-0.213,0.08-0.267,0.187
			c-0.373,1.227-0.373,2.667,0,3.894c0.054,0.106,0.134,0.187,0.24,0.187c1.68,0.187,3.387,0.267,5.093,0.267
			s3.414-0.08,5.093-0.267c0.107,0,0.213-0.08,0.24-0.187C130.653,14.293,130.653,12.88,130.28,11.653z M129.8,15.227
			c-3.2,0.347-6.48,0.347-9.707,0c-0.267-1.04-0.293-2.187,0-3.227h9.707C130.067,13.04,130.067,14.187,129.8,15.227z"/>
	</g>
</g>
<g>
	<g>
		<path fill="#EA5647" d="M124.947,0c-1.173,0-2.133,0.96-2.133,2.133s0.96,2.133,2.133,2.133s2.133-0.96,2.133-2.133
			S126.12,0,124.947,0z M124.947,3.733c-0.88,0-1.6-0.72-1.6-1.6s0.72-1.6,1.6-1.6s1.6,0.72,1.6,1.6S125.827,3.733,124.947,3.733z"
			/>
	</g>
</g>
<g>
	<g>
		<path fill="#EA5647" d="M124.947,0.8c-0.16,0-0.267,0.107-0.267,0.267c0,0.16,0.106,0.267,0.267,0.267s0.267-0.107,0.267-0.267
			C125.213,0.907,125.107,0.8,124.947,0.8z"/>
	</g>
</g>
<g>
	<g>
		<path fill="#EA5647" d="M124.147,1.333c-0.16,0-0.267,0.106-0.267,0.267c0,0.16,0.106,0.267,0.267,0.267
			c0.16,0,0.267-0.107,0.267-0.267C124.414,1.44,124.307,1.333,124.147,1.333z"/>
	</g>
</g>
<g>
	<g>
		<path fill="#EA5647" d="M125.747,1.333c-0.16,0-0.267,0.106-0.267,0.267c0,0.16,0.107,0.267,0.267,0.267
			c0.16,0,0.267-0.107,0.267-0.267C126.014,1.44,125.907,1.333,125.747,1.333z"/>
	</g>
</g>
<g>
	<g>
		<path fill="#EA5647" d="M124.947,1.867c-0.16,0-0.267,0.106-0.267,0.267s0.106,0.267,0.267,0.267s0.267-0.106,0.267-0.267
			S125.107,1.867,124.947,1.867z"/>
	</g>
</g>
<g>
	<g>
		<path fill="#EA5647" d="M125.747,2.4c-0.16,0-0.267,0.107-0.267,0.267c0,0.16,0.107,0.267,0.267,0.267
			c0.16,0,0.267-0.106,0.267-0.267C126.014,2.507,125.907,2.4,125.747,2.4z"/>
	</g>
</g>
<g>
	<g>
		<path fill="#EA5647" d="M124.147,2.4c-0.16,0-0.267,0.107-0.267,0.267c0,0.16,0.106,0.267,0.267,0.267
			c0.16,0,0.267-0.106,0.267-0.267C124.414,2.507,124.307,2.4,124.147,2.4z"/>
	</g>
</g>
<g>
	<g>
		<path fill="#EA5647" d="M124.947,2.934c-0.16,0-0.267,0.106-0.267,0.267c0,0.16,0.106,0.267,0.267,0.267s0.267-0.107,0.267-0.267
			C125.213,3.04,125.107,2.934,124.947,2.934z"/>
	</g>
</g>
<g>
	<g>
		<path fill="#EA5647" d="M129.213,6.854c-0.24-0.613-0.506-1.173-0.8-1.653c-0.053-0.08-0.16-0.133-0.24-0.133h-6.453
			c-0.107,0-0.187,0.053-0.24,0.106c-0.293,0.507-0.56,1.04-0.8,1.653c-0.027,0.106,0,0.187,0.053,0.267
			c0.054,0.053,0.133,0.106,0.213,0.106h7.947c0.08,0,0.187-0.053,0.293-0.106C129.24,7.04,129.24,6.933,129.213,6.854z
			 M121.347,6.667c0.16-0.373,0.32-0.747,0.507-1.066h6.16c0.187,0.32,0.373,0.693,0.533,1.066H121.347z"/>
	</g>
</g>
<g>
	<g>
		<path fill="#EA5647" d="M129.667,8.453c-0.107-0.56-0.293-1.093-0.48-1.626c-0.027-0.08-0.133-0.16-0.24-0.16h-8
			c-0.106,0-0.213,0.08-0.267,0.187c-0.187,0.506-0.347,1.066-0.48,1.626c-0.027,0.08,0,0.16,0.053,0.213
			c0.053,0.08,0.133,0.106,0.213,0.106h8.96c0.08,0,0.16-0.026,0.187-0.133C129.667,8.613,129.693,8.533,129.667,8.453z
			 M120.813,8.267c0.08-0.373,0.187-0.72,0.32-1.066h7.654c0.106,0.347,0.213,0.693,0.32,1.066H120.813z"/>
	</g>
</g>
<g>
	<g>
		<path fill="#EA5647" d="M129.693,8.48c-0.026-0.133-0.133-0.213-0.267-0.213h-8.96c-0.133,0-0.24,0.08-0.267,0.213
			c-0.133,0.533-0.213,1.093-0.267,1.626c0,0.08,0.026,0.16,0.08,0.213c0.026,0.054,0.106,0.08,0.187,0.08h9.493
			c0.08,0,0.134-0.026,0.187-0.08c0.053-0.053,0.08-0.133,0.08-0.213C129.907,9.573,129.827,9.013,129.693,8.48z M120.494,9.867
			c0.053-0.347,0.106-0.72,0.187-1.067h8.533c0.08,0.347,0.133,0.72,0.187,1.067H120.494z"/>
	</g>
</g>
<g>
	<g>
		<path fill="#EA5647" d="M128.387,5.173c-0.026-0.053-0.08-0.133-0.133-0.213c-0.586-0.88-1.227-1.467-1.92-1.76
			c-0.08-0.027-0.213,0-0.293,0.08l-0.026,0.027c-0.16,0.133-0.32,0.24-0.534,0.32c-0.347,0.133-0.72,0.133-1.066,0
			c-0.187-0.053-0.587-0.347-0.587-0.347c-0.08-0.08-0.187-0.08-0.293-0.053c-0.693,0.293-1.333,0.88-1.92,1.76
			c-0.026,0.053-0.08,0.133-0.133,0.213c-0.053,0.08-0.053,0.187,0,0.267c0.054,0.08,0.133,0.133,0.24,0.133l6.427-0.027
			c0.106,0,0.187-0.053,0.24-0.133C128.44,5.36,128.44,5.253,128.387,5.173z M122.2,5.067c0.427-0.614,0.907-1.04,1.36-1.28
			c0.187,0.16,0.667,0.374,0.667,0.374c0.48,0.16,0.96,0.187,1.44,0c0.24-0.107,0.453-0.213,0.64-0.374
			c0.48,0.24,0.96,0.667,1.387,1.28H122.2z"/>
	</g>
</g>
<g>
	<g>
		<path fill="#EA5647" d="M129.96,10.107c-0.026-0.134-0.133-0.24-0.267-0.24H120.2c-0.133,0-0.267,0.106-0.267,0.24
			c-0.027,0.373-0.053,0.747-0.053,1.093c0,0.187,0,0.373,0.026,0.56c0,0.133,0.133,0.24,0.267,0.24h9.547
			c0.16,0,0.267-0.106,0.267-0.24c0.027-0.187,0.027-0.374,0.027-0.56C130.014,10.854,129.987,10.48,129.96,10.107z M129.48,11.467
			h-9.066c0-0.08,0-0.187,0-0.267c0-0.267,0-0.534,0.026-0.8h9.014c0.026,0.267,0.026,0.534,0.026,0.8
			C129.48,11.28,129.48,11.387,129.48,11.467z"/>
	</g>
</g>
</svg>
