<svg id="Group_298" data-name="Group 298" xmlns="http://www.w3.org/2000/svg" xmlns:xlink="http://www.w3.org/1999/xlink" width="138" height="58.59" viewBox="0 0 138 58.59">
  <defs>
    <clipPath id="clip-path">
      <rect id="Rectangle_4105" data-name="Rectangle 4105" width="138" height="58.59" transform="translate(0 0)" fill="none"/>
    </clipPath>
  </defs>
  <g id="Group_297" data-name="Group 297" clip-path="url(#clip-path)">
    <path id="Path_346" data-name="Path 346" d="M33.58,22.61a11.4,11.4,0,0,0,4.81-9.52C38.39,5,33.44,0,23.74,0H0V48.44H25c9.35,0,15.21-5.58,15.21-14.24C40.21,28.69,37.7,24.78,33.58,22.61ZM10.05,8.22H22.69c3.49,0,5.65,2.25,5.65,5.46a5.465,5.465,0,0,1-5.65,5.51H10.05ZM23.11,40.21H10.05V27.41H22.9c4.68,0,7.26,2.39,7.26,6.43,0,4.75-3.49,6.36-7.05,6.36Z" fill="#fff"/>
    <path id="Path_347" data-name="Path 347" d="M138,8.22V0H101.44V48.25L78.68,21.71,97.3,0H84.05L65.8,21.27V0H55.75V48.43l16.3-19L88.36,48.44,138,48.43V40.21H111.5V27.41h21.93V19.19H111.5V8.22Z" fill="#fff"/>
    <rect id="Rectangle_4104" data-name="Rectangle 4104" width="10.05" height="48.44" transform="translate(42.04)" fill="#fff"/>
    <path id="Path_348" data-name="Path 348" d="M91.44,56.35l-.85-3.33H88.36v5.47h1.39V54.32l1.06,4.17h1.26l1.06-4.17v4.17h1.39V53.02H92.3Z" fill="#fff"/>
    <path id="Path_349" data-name="Path 349" d="M112.55,53.02l-2.06,5.47h1.73l.27-.9h1.92l.27.9h1.77l-2.06-5.47h-1.84Zm.3,3.39.6-1.97.6,1.97Z" fill="#fff"/>
    <path id="Path_350" data-name="Path 350" d="M135.39,56.51h1.13v.52a2.783,2.783,0,0,1-.59.28,1.905,1.905,0,0,1-.54.08,1.176,1.176,0,0,1-.93-.38,1.935,1.935,0,0,1-.33-1.27,1.853,1.853,0,0,1,.33-1.22,1.11,1.11,0,0,1,.89-.39,1.045,1.045,0,0,1,.61.16.916.916,0,0,1,.34.47l1.63-.29a2.363,2.363,0,0,0-.45-.88,1.705,1.705,0,0,0-.75-.51,4.213,4.213,0,0,0-1.36-.16,3.531,3.531,0,0,0-1.5.27,2.306,2.306,0,0,0-1.08,1.01,3.5,3.5,0,0,0-.03,3.07,2.276,2.276,0,0,0,.95.99,3.352,3.352,0,0,0,1.59.33,4.318,4.318,0,0,0,1.37-.19,5.224,5.224,0,0,0,1.33-.7V55.37h-2.61Z" fill="#fff"/>
  </g>
</svg>
