<?xml version="1.0" encoding="utf-8"?>
<!-- Generator: Adobe Illustrator 16.0.0, SVG Export Plug-In . SVG Version: 6.00 Build 0)  -->
<!DOCTYPE svg PUBLIC "-//W3C//DTD SVG 1.1//EN" "http://www.w3.org/Graphics/SVG/1.1/DTD/svg11.dtd">
<svg version="1.1" id="Layer_1" xmlns="http://www.w3.org/2000/svg" xmlns:xlink="http://www.w3.org/1999/xlink" x="0px" y="0px"
	 width="20px" height="20px" viewBox="-0.317 -1.802 20 20" enable-background="new -0.317 -1.802 20 20" xml:space="preserve">
<g id="Group_266" opacity="0.503">
	<g>
		<defs>
			<rect id="SVGID_1_" y="0" width="19.365" height="16.395"/>
		</defs>
		<clipPath id="SVGID_2_">
			<use xlink:href="#SVGID_1_"  overflow="visible"/>
		</clipPath>
		<g id="Group_265" clip-path="url(#SVGID_2_)">
			<path id="Path_326" fill="#231F20" d="M18.685,15.035H17.31V3.144c0-0.764-0.619-1.383-1.383-1.383c0,0,0,0-0.001,0h-0.778v-0.76
				c-0.004-0.553-0.453-1-1.006-1H5.223c-0.553,0-1.003,0.446-1.006,1v0.76H3.439C2.675,1.76,2.056,2.379,2.055,3.143
				c0,0.001,0,0.001,0,0.001v11.891H0.68c-0.375,0-0.68,0.305-0.68,0.68c0,0.376,0.304,0.68,0.68,0.68h18.004
				c0.376,0,0.68-0.305,0.68-0.681C19.364,15.338,19.06,15.034,18.685,15.035 M8.466,4.223c0-0.271,0.22-0.49,0.49-0.49h1.453
				c0.271,0,0.49,0.22,0.49,0.49v1.453c0,0.271-0.22,0.49-0.49,0.49H8.956c-0.271,0-0.49-0.22-0.49-0.49V4.223z M8.466,8.243
				c0-0.271,0.22-0.49,0.49-0.49h1.453c0.271,0,0.49,0.219,0.49,0.49v1.458c0,0.271-0.22,0.489-0.49,0.489H8.956
				c-0.271,0-0.49-0.219-0.49-0.489V8.243z M4.217,4.223c0-0.271,0.22-0.49,0.49-0.49H6.16c0.271,0,0.49,0.22,0.49,0.49v1.453
				c0,0.271-0.219,0.49-0.49,0.49H4.707c-0.271,0-0.49-0.22-0.49-0.49V4.223z M6.16,10.187H4.707c-0.271,0-0.49-0.219-0.49-0.489
				V8.244c0-0.271,0.22-0.49,0.49-0.49H6.16c0.271,0,0.49,0.22,0.49,0.49v1.457c0,0.271-0.219,0.489-0.49,0.489 M9.079,15.039H6.537
				v-2.784c0-0.346,0.28-0.625,0.625-0.625h1.917V15.039z M12.828,15.039h-2.542v-3.4H12.2c0.345,0,0.625,0.28,0.625,0.625
				L12.828,15.039z M15.147,9.701c0,0.271-0.22,0.489-0.49,0.489H13.2c-0.271,0-0.49-0.219-0.49-0.489V8.244
				c0-0.271,0.219-0.49,0.49-0.49h1.453c0.271,0,0.49,0.22,0.49,0.49L15.147,9.701z M15.147,5.681c0,0.271-0.22,0.49-0.49,0.49H13.2
				c-0.271,0-0.49-0.22-0.49-0.49V4.223c0-0.271,0.219-0.49,0.49-0.49h1.453c0.271,0,0.49,0.22,0.49,0.49L15.147,5.681z"/>
		</g>
	</g>
</g>
</svg>
