<?xml version="1.0" encoding="utf-8"?>
<!-- Generator: Adobe Illustrator 16.0.0, SVG Export Plug-In . SVG Version: 6.00 Build 0)  -->
<!DOCTYPE svg PUBLIC "-//W3C//DTD SVG 1.1//EN" "http://www.w3.org/Graphics/SVG/1.1/DTD/svg11.dtd">
<svg version="1.1" id="Layer_1" xmlns="http://www.w3.org/2000/svg" xmlns:xlink="http://www.w3.org/1999/xlink" x="0px" y="0px"
	 width="21.5px" height="21.5px" viewBox="2.25 2.25 21.5 21.5" enable-background="new 2.25 2.25 21.5 21.5" xml:space="preserve">
<path fill="none" stroke="#99A1B7" stroke-width="1.5" stroke-linecap="round" stroke-linejoin="round" d="M8.556,13
	c0,2.454,1.99,4.444,4.444,4.444c2.454,0,4.444-1.99,4.444-4.444c0-2.455-1.99-4.444-4.444-4.444
	C10.545,8.556,8.556,10.545,8.556,13"/>
<path fill="none" stroke="#99A1B7" stroke-width="1.5" stroke-linecap="round" stroke-linejoin="round" d="M3,13
	c0,5.523,4.477,10,10,10c5.523,0,10-4.477,10-10c0-5.523-4.477-10-10-10C7.477,3,3,7.477,3,13"/>
<path fill="none" stroke="#99A1B7" stroke-width="1.5" stroke-linecap="round" stroke-linejoin="round" d="M16.333,16.333
	l3.722,3.722"/>
<path fill="none" stroke="#99A1B7" stroke-width="1.5" stroke-linecap="round" stroke-linejoin="round" d="M9.667,16.333
	l-3.722,3.722"/>
<path fill="none" stroke="#99A1B7" stroke-width="1.5" stroke-linecap="round" stroke-linejoin="round" d="M5.944,5.944l3.722,3.722
	"/>
<path fill="none" stroke="#99A1B7" stroke-width="1.5" stroke-linecap="round" stroke-linejoin="round" d="M20.055,5.944
	l-3.722,3.722"/>
</svg>
