<?xml version="1.0" encoding="utf-8"?>
<!-- Generator: Adobe Illustrator 16.0.0, SVG Export Plug-In . SVG Version: 6.00 Build 0)  -->
<!DOCTYPE svg PUBLIC "-//W3C//DTD SVG 1.1//EN" "http://www.w3.org/Graphics/SVG/1.1/DTD/svg11.dtd">
<svg version="1.1" id="Layer_1" xmlns="http://www.w3.org/2000/svg" xmlns:xlink="http://www.w3.org/1999/xlink" x="0px" y="0px"
	 width="20px" height="20px" viewBox="-4.443 -1.802 20 20" enable-background="new -4.443 -1.802 20 20" xml:space="preserve">
<g id="Group_268" opacity="0.5">
	<g>
		<defs>
			<rect id="SVGID_1_" y="0" width="11.114" height="16.395"/>
		</defs>
		<clipPath id="SVGID_2_">
			<use xlink:href="#SVGID_1_"  overflow="visible"/>
		</clipPath>
		<g id="Group_267" clip-path="url(#SVGID_2_)">
			<path id="Path_327" fill="#231F20" d="M6.308,16.012c1.517-2.079,4.806-6.987,4.806-10.455C11.114,2.488,8.625,0,5.557,0
				S0,2.489,0,5.557c0,3.468,3.289,8.376,4.806,10.455c0.301,0.414,0.88,0.506,1.294,0.205c0.08-0.057,0.148-0.126,0.206-0.205
				 M2.893,5.529c0-1.486,1.205-2.691,2.692-2.691s2.692,1.205,2.692,2.691c0,1.487-1.205,2.692-2.692,2.692
				S2.893,7.016,2.893,5.529L2.893,5.529"/>
		</g>
	</g>
</g>
</svg>
