<svg id="Group_841" data-name="Group 841" xmlns="http://www.w3.org/2000/svg" width="103.078" height="18.144" viewBox="0 0 103.078 18.144">
  <path id="Path_1198" data-name="Path 1198" d="M9.539,0,7.288,6.931H0l5.9,4.283-2.252,6.93,5.9-4.283,5.9,4.283-2.252-6.93,5.9-4.283H11.791Z" transform="translate(0)" fill="#f85241"/>
  <path id="Path_1199" data-name="Path 1199" d="M9.539,0,7.288,6.931H0l5.9,4.283-2.252,6.93,5.9-4.283,5.9,4.283-2.252-6.93,5.9-4.283H11.791Z" transform="translate(21)" fill="#f85241"/>
  <path id="Path_1200" data-name="Path 1200" d="M9.539,0,7.288,6.931H0l5.9,4.283-2.252,6.93,5.9-4.283,5.9,4.283-2.252-6.93,5.9-4.283H11.791Z" transform="translate(42)" fill="#f85241"/>
  <path id="Path_1201" data-name="Path 1201" d="M9.539,0,7.288,6.931H0l5.9,4.283-2.252,6.93,5.9-4.283,5.9,4.283-2.252-6.93,5.9-4.283H11.791Z" transform="translate(63)" fill="#f85241"/>
  <path id="Path_1202" data-name="Path 1202" d="M9.539,0,7.288,6.931H0l5.9,4.283-2.252,6.93,5.9-4.283,5.9,4.283-2.252-6.93,5.9-4.283H11.791Z" transform="translate(84)" fill="#f85241"/>
</svg>
