<?xml version="1.0" encoding="utf-8"?>
<!-- Generator: Adobe Illustrator 16.0.0, SVG Export Plug-In . SVG Version: 6.00 Build 0)  -->
<!DOCTYPE svg PUBLIC "-//W3C//DTD SVG 1.1//EN" "http://www.w3.org/Graphics/SVG/1.1/DTD/svg11.dtd">
<svg version="1.1" id="Layer_1" xmlns="http://www.w3.org/2000/svg" xmlns:xlink="http://www.w3.org/1999/xlink" x="0px" y="0px"
	 width="18px" height="12.522px" viewBox="0.019 117.496 18 12.522" enable-background="new 0.019 117.496 18 12.522"
	 xml:space="preserve">
<path fill="#FFFFFF" d="M7.836,124.821c0.271,1.597,0.6,3.264,0.782,3.607c0.258,0.486,0.863,0.674,1.35,0.416
	c0.486-0.258,0.672-0.865,0.414-1.351C10.201,127.15,9.005,125.942,7.836,124.821L7.836,124.821z M7.425,122.979
	c0.577,0.534,3.478,3.232,3.894,4.018c0.531,1.001,0.148,2.249-0.854,2.782c-0.306,0.162-0.635,0.238-0.959,0.238
	c-0.738,0-1.453-0.397-1.822-1.093c-0.416-0.786-1.022-4.7-1.14-5.478c-0.033-0.222,0.077-0.442,0.275-0.546
	C7.018,122.795,7.259,122.826,7.425,122.979L7.425,122.979z M9.019,117.496c4.963,0,9,4.039,9,9c0,0.723-0.083,1.436-0.25,2.118
	l-0.097,0.404h-4.916v-1.059h4.071c0.089-0.476,0.134-0.967,0.134-1.463c0-4.379-3.563-7.941-7.941-7.941
	c-4.379,0-7.941,3.562-7.941,7.941c0,0.497,0.045,0.988,0.133,1.463h4.57v1.059H0.365l-0.097-0.404
	c-0.166-0.682-0.249-1.395-0.249-2.118C0.019,121.534,4.056,117.496,9.019,117.496L9.019,117.496z M14.105,121.158l0.749,0.749
	l-1.057,1.057l-0.749-0.749L14.105,121.158z M3.931,121.158l1.057,1.057l-0.749,0.749l-1.057-1.057L3.931,121.158L3.931,121.158z
	 M9.547,119.271v1.495H8.489v-1.495H9.547L9.547,119.271z"/>
</svg>
