<?xml version="1.0" encoding="utf-8"?>
<!-- Generator: Adobe Illustrator 16.0.0, SVG Export Plug-In . SVG Version: 6.00 Build 0)  -->
<!DOCTYPE svg PUBLIC "-//W3C//DTD SVG 1.1//EN" "http://www.w3.org/Graphics/SVG/1.1/DTD/svg11.dtd">
<svg version="1.1" id="Layer_1" xmlns="http://www.w3.org/2000/svg" xmlns:xlink="http://www.w3.org/1999/xlink" x="0px" y="0px"
	 width="18px" height="14.799px" viewBox="33.333 97.073 18 14.799" enable-background="new 33.333 97.073 18 14.799"
	 xml:space="preserve">
<path fill="#FFFFFF" d="M34.152,111.872h4.909c0.452,0,0.818-0.367,0.818-0.818s-0.366-0.818-0.818-0.818h-4.033
	c0.411-2.816,2.824-4.905,5.669-4.909c2.279,0.02,4.143-1.812,4.163-4.091c0.02-2.279-1.812-4.143-4.091-4.163
	c-2.279-0.02-4.143,1.812-4.163,4.091c-0.01,1.165,0.473,2.279,1.328,3.069c-2.778,1.127-4.597,3.824-4.601,6.821
	C33.333,111.505,33.7,111.872,34.152,111.872z M40.697,98.781c1.355,0,2.455,1.099,2.455,2.455c0,1.356-1.099,2.455-2.455,2.455
	s-2.455-1.099-2.455-2.455C38.243,99.88,39.342,98.781,40.697,98.781z M49.048,102.293c-0.319-0.319-0.837-0.319-1.157,0
	l-5.114,5.114c-0.089,0.09-0.157,0.199-0.197,0.32l-1.022,3.068c-0.143,0.429,0.089,0.892,0.518,1.035
	c0.083,0.028,0.17,0.042,0.258,0.042c0.088,0,0.175-0.014,0.259-0.042l3.068-1.022c0.121-0.041,0.23-0.108,0.32-0.198l5.113-5.114
	c0.32-0.319,0.32-0.837,0-1.157L49.048,102.293z M44.958,109.316l-1.333,0.444l0.444-1.333l4.401-4.398l0.888,0.889L44.958,109.316z
	"/>
</svg>
