<?xml version="1.0" encoding="utf-8"?>
<!-- Generator: Adobe Illustrator 16.0.0, SVG Export Plug-In . SVG Version: 6.00 Build 0)  -->
<!DOCTYPE svg PUBLIC "-//W3C//DTD SVG 1.1//EN" "http://www.w3.org/Graphics/SVG/1.1/DTD/svg11.dtd">
<svg version="1.1" id="Layer_1" xmlns="http://www.w3.org/2000/svg" xmlns:xlink="http://www.w3.org/1999/xlink" x="0px" y="0px"
	 width="1457.04px" height="403.249px" viewBox="0.21 0.035 1457.04 403.249" enable-background="new 0.21 0.035 1457.04 403.249"
	 xml:space="preserve">
<g id="_x23_000000ff">
	<path fill="#FFFFFF" d="M417.58,10.59c2.34-3.36,3.86-7.2,6.22-10.55c16.32-0.26,31.72,8.9,41.12,21.93
		c-10.9,11.46-19.49,24.83-27.77,38.23c-15.71,25.68-29.2,52.63-42.21,79.75c-12.23,26.2-23.69,52.77-34.29,79.67
		c-11.25,29.601-22.52,59.351-29.44,90.31c-2.02,10.021-4.28,20.431-2.05,30.62c-9.81,0.51-19.95-1.71-27.8-7.819
		c-6.6-5.11-12.02-12.25-13.34-20.65c-1.93-8.17,0.95-16.28,2.95-24.12c8.38-30.06,21.23-58.6,33.46-87.23
		c-15.55,3.58-31.28,6.46-46.63,10.84c-39.3,12.2-79.05,22.89-118.7,33.87c-30.17,8.351-60.14,17.65-90.9,23.681
		c-13.64,2.69-27.34,5.45-41.25,6.36c-5.07,0.319-11.01,0.399-14.59-3.86c-7.62-8.32-11.19-19.729-12.15-30.79
		c7.94,4.16,17.07,4.52,25.82,3.82c24.41-1.631,48.18-7.75,72.03-12.82c50.21-11.25,100.44-22.45,150.49-34.39
		c3.52-0.87,7.28-0.83,10.65-2.27c3.02-2.25,5.33-5.29,8.03-7.91C321.02,131.61,370.17,71.7,417.58,10.59 M300.58,186.73
		c10.63-2.14,21.4-3.51,32.17-4.69c12.83-28.75,26.55-57.09,40.36-85.38C349.17,126.87,325.68,157.46,300.58,186.73z"/>
	<path fill="#FFFFFF" d="M1029.37,39.22c5.88-11.11,11.43-22.4,17.24-33.55c16.06,0.58,31.42,9.14,40.54,22.33
		c-3.141,4.22-6.33,8.4-9.45,12.64c38.68,1.7,77.36,3.29,116.03,5.1c-3.881,9.25-10.7,17.02-18.82,22.8
		c-37.28-1.58-74.561-3.21-111.85-4.7c-27.181,45.23-51.681,92.08-73.37,140.18c14.069-12.04,26.939-25.54,38.27-40.16
		c12.13-31.3,29.979-60.17,50.95-86.29c15.95,0.18,32.26,6.51,42.8,18.76c-11.12,7.27-19.07,18.24-26.21,29.22
		c-13.33,21.06-23.689,44.3-28.23,68.92c-0.859,6.13-1.779,12.92,1.4,18.57c6.16-4.64,10.49-11.15,15.311-17.06
		c14.5-19.32,28.33-39.12,42.14-58.94c10.979-15.29,21.86-30.65,33.13-45.74c2.71-3.66,5.66-7.15,8.87-10.41
		c14.319,2.81,29.52,7.07,39.54,18.42c-11.09,14.74-21.03,30.35-29.48,46.74c-10.8,21.67-20.33,44-28.24,66.89
		c7.011-4.87,12.921-11.08,18.86-17.15c8.75-8.97,16.96-18.45,24.771-28.25c13.449-15.91,23.569-34.21,34.21-52.02
		c-9.521-7.23-12.641-19.83-14.33-31.07c17.27,5.58,35.52,6.84,53.51,8.09c16.26,0.92,32.57,0.93,48.83,1.64
		c12.74,5.38,21.35,17.01,28.72,28.24c-15.05,10.89-27.31,25.15-37.81,40.36c-13.89,20.54-25.42,43.29-29.681,67.91
		c6.221-2.98,11.891-6.98,17.141-11.42c9.02-7.65,17.689-15.77,25.42-24.74c1.689-2.02,2.14-4.7,3.06-7.1
		c6.28-18.92,16.61-36.25,28.86-51.88c8.62-10.94,18.16-21.54,30.15-28.86c5.18-3.06,11.05-5.86,17.25-5.19
		c16.149,1.61,30.96,9.98,42.72,20.86c5.77,5.59,11.14,12.44,12.37,20.59c-0.38,6-3.78,11.26-6.51,16.46
		c-10.391,17.68-22.311,34.71-37.391,48.72c-4.81,4.06-9.77,8.7-16.16,9.94c-6.399,0.5-12.71-2.29-17.56-6.33
		c-3.89-3.27-7.64-6.68-11.51-9.96c-2.391,9.18-3.521,18.81-2.38,28.27c1.05,5.57,3.869,10.69,7.22,15.21
		c3.569,4.53,10.12,8.03,15.76,5.15c7.851-3.7,14.65-9.24,21.45-14.57c16.99-14.05,32.9-29.68,45.59-47.78
		c1.86,4.3,2.9,8.9,4.75,13.22c-19.32,27.61-38.46,55.35-57.76,82.97c-17.851-2.33-35.91-6.05-51.76-14.96
		c-8.591-4.61-16.41-10.81-22.45-18.49c-5.19-6.649-7.7-14.979-8.561-23.28c-11.189,14.3-22.04,28.91-31.909,44.16
		c-9.541-1.09-18.381-5.26-26.681-9.869c-7.36-4.681-15.2-9.73-19.26-17.75c-2.8-5.371-5.47-11-6-17.121
		c-1.56-15.69,2.54-31.49,9.72-45.38c12.641-25.3,30.53-47.66,50.561-67.5c-10.261,0.73-20.57-0.15-30.811,0.65
		c-3.67,4.28-6.14,9.6-9.39,14.25c-19.74,31.17-40.2,61.97-63.14,90.91c-7.48,9.41-15.311,18.59-24.021,26.89
		c-5.31,4.85-10.771,10.04-17.79,12.24c-3.77,1.42-7.88,0.779-11.77,0.391c-7.45-0.851-14.841-4.16-19.44-10.25
		c-7.92-9.431-9.16-22.541-7.38-34.301c1.85-11.4,5.359-22.52,10.04-33.07c-16.15,24.32-31.99,48.85-47.851,73.35
		c-12.739-1.591-24.14-8.74-33.42-17.3c-7.369-7.39-14.119-16.22-16.12-26.7c-0.76-3.82-0.989-7.72-1.18-11.61
		c-13.06,16.82-25.84,33.9-36.86,52.141c-8.81,0.09-17.13-3.211-25.13-6.51c-8.38-3.44-15.83-8.98-21.67-15.871
		c3.19-8.61,6.53-17.16,9.95-25.69c-11.06,15.49-22.67,30.62-32.61,46.87c-18.13-3.46-36.84-8.96-50.729-21.73
		c5.93-20.22,12.96-40.13,21.4-59.44c4.399-10.48,9.329-20.73,13.949-31.11c-21.76,23.88-42.3,48.98-59.949,76.08
		c-7.431,11.45-14.08,23.42-19.78,35.83c-15.61-1.77-30.12-9.41-42.061-19.38c6.841-13.43,12.931-27.24,18.851-41.1
		c-11.7,15.01-22.351,30.81-33.15,46.47c-3.85,5.709-7.42,11.619-10.729,17.66c-19.92,0.56-40.721-0.311-58.971-9.17
		c-9.88-4.86-19.479-12.451-22.52-23.511c-3.22-11.72-1.9-24.19,0.57-35.93c3.92-17.24,11.09-33.6,19.77-48.95
		c9.87-16.79,21.33-32.9,35.74-46.11c6.229-5.31,12.88-10.82,20.99-12.8c16.96-2.36,34.35,3.79,47.489,14.43
		c5.181,4.57,10.221,10.36,11.32,17.39c-1.92,9.58-7.48,17.96-12.32,26.31c-10.399,16.75-21.319,33.56-35.939,46.97
		c-4.891,4.3-10.46,9.49-17.521,8.54c-9.38-0.03-16.17-7.07-23.489-11.88c-2.28,8.79-3.54,17.94-2.551,27.01
		c0.551,5.32,3.58,10.01,6.91,14.04c3.521,4.15,9.891,6.39,14.95,3.78c4.11-2.06,7.7-4.98,11.21-7.9
		c10.77-9.19,20.42-19.61,29.61-30.35c12.83-14.98,25.01-30.51,36.27-46.7c2.63-4.03,6.03-7.66,7.62-12.28
		c4.85-13.26,9.66-26.55,13.9-40.02c1.42-4.35,2.39-8.85,2.76-13.41c18.1-0.27,36.08,5.2,51.29,14.94
		c-15.57,21.65-28.65,45.03-39.4,69.42c22.07-27.51,46.05-53.76,73.69-75.8c4-2.96,7.8-6.25,12.109-8.75
		c14.851-0.71,30.42,4.6,40.551,15.77c-17.12,23.44-31.511,48.88-43.091,75.49c-5.609,13.05-10.369,26.45-14.93,39.89
		c12.8-10.37,24.11-22.51,34.34-35.4c8.98-11.39,18.24-22.61,26.23-34.74c12.16-24.09,24.24-48.25,37.7-71.65
		c-55.29-2.52-110.57-5.24-165.86-7.63c-0.36-1.56-0.56-3.21,0.19-4.69c2.859-6.87,7.43-12.86,12.159-18.53
		C918.55,34.1,973.96,36.68,1029.37,39.22 M763.54,107.53c-9,4.03-15.57,11.81-21.46,19.47c-8.94,12.14-16.42,25.48-21.2,39.82
		c3.96-1.35,7.771-3.18,11.12-5.71c11.19-8.44,20.63-19.04,28.6-30.52c4.2-6.26,8.91-12.89,9.41-20.64
		C770.15,106.52,765.82,106.31,763.54,107.53 M1395.92,144.87c-12.37,12.7-21.689,28.22-27.689,44.87
		c6.22-0.98,11.779-4.15,16.779-7.85c10.84-8.07,19.91-18.35,27.33-29.6c2.521-4.35,5.33-9.12,4.92-14.32
		c-0.479-2.85-3.939-3.55-6.29-2.81C1405.07,136.7,1400.17,140.66,1395.92,144.87z"/>
	<path fill="#FFFFFF" d="M562.24,12.56c15.479-1.86,31.3,5.28,40.89,17.42c-10.01,10.35-17.71,22.59-25.41,34.67
		c-23.37,37.26-41.34,77.52-59.609,117.43c-7.12,16.25-14.141,32.54-20.95,48.92c12.88-10.81,22.82-24.51,33.34-37.5
		c3.64-3.91,3.77-9.53,5.74-14.27c11.93-32.69,29.26-63.3,50.04-91.17c15.14-1.9,31.51,2.08,42.56,12.99
		c-11.38,9.85-19.609,22.66-27.609,35.25c-9.15,14.7-16.94,30.21-23.95,46.03c-4.49,10.42-8.58,21.09-11,32.2
		c-0.44,3-1.391,6.27-0.12,9.19c0.63,1.45,2.439,0.96,3.64,0.75c5.67-1.44,10.23-5.4,14.45-9.25
		c14.02-13.21,25.57-28.76,36.46-44.57c14.33-21.61,27.71-44.18,36.05-68.85c2.32-6.84,3.891-14,3.67-21.26
		c10.141,0.73,19.891,3.99,29.19,7.94c4.399,2.13,9.41,4.48,11.25,9.38c-13.23,33.23-33.71,62.81-54.5,91.67
		c-10.851,14.93-22.47,29.32-34.68,43.16c-9,9.961-18.16,19.84-28.29,28.67c-2.61,2.021-5.07,4.621-8.37,5.431
		c-11.351,1.22-23.181-2.47-31.53-10.34c-9.44-7.95-14.01-20.171-15.01-32.21c-11.94,16.609-22.471,34.16-32.851,51.77
		c-11.21,0.36-22.46-1.449-33.18-4.68c-6.16-2.1-12.94-4.41-16.68-10.141c4.29-12.199,8.56-24.42,13.25-36.469
		c-11.82,20.389-23.49,40.86-35.15,61.35c-16.7,0.89-32.93-7.98-42.98-21.03c-4.2-5.08-6.61-11.46-7.27-17.979
		c-1.11-11.101,0.33-22.32,3.15-33.07c4.1-16.51,10.53-32.43,19.03-47.17c12.47-21.27,26.06-42.78,45.79-58.08
		c4.23-3.11,8.92-6.06,14.271-6.59c8.91-1,18.31-0.51,26.54,3.39c7.87,3.92,15.09,9.12,21.439,15.19
		C521.49,83.73,541.33,47.81,562.24,12.56 M462.08,140.04c-11.07,9.92-19.29,22.51-26.68,35.29c-8.03,13.83-14.41,28.59-19.07,43.88
		c-1.74,6.4-3.49,13.11-2.51,19.79c0.22,2.939,3.17,5.08,6.04,4.141c3.35-1.971,5.83-5.07,8.42-7.91
		c13.239-15.61,25.67-31.891,37.37-48.67c9.71-13.75,18.909-27.87,27.239-42.51c-1.75-3.84-3.25-7.85-5.59-11.37
		c-1.38-2.04-4.01-2.73-6.33-2.39C473.72,131.08,467.42,135.32,462.08,140.04z"/>
	<path fill="#FFFFFF" d="M130.37,74.95c4.2-0.79,8.72-1.72,12.86-0.15c2.12,0.78,3.01,3.14,3.07,5.24
		c0.23,5.48-0.01,10.97,0.08,16.46c5.79,0,11.58,0,17.36,0c0.01-7.18,0.01-14.37,0.01-21.55c4.32-0.81,9.1-1.85,13.26,0.1
		c2.5,1.29,2.76,4.4,2.75,6.89c-0.07,16.16,0.09,32.33-0.08,48.5c-4.24,0.41-8.74,1.27-12.84-0.25c-2.45-0.96-3.03-3.82-3.07-6.15
		c-0.12-5.01,0.03-10.03-0.02-15.03c-5.79-0.01-11.59-0.02-17.38,0c0.01,7.12,0.01,14.23,0,21.35c-4.2,0.54-8.64,1.29-12.76-0.08
		c-2.92-1.08-3.3-4.56-3.25-7.23C130.39,107.02,130.38,90.98,130.37,74.95z"/>
	<path fill="#FFFFFF" d="M58.59,77.53c1.15-1.82,3.43-2.1,5.4-2.04c13.14,0.01,26.29,0.02,39.44,0c1.58,3.81,2.84,10-1.77,12.16
		C97.49,88.42,93.21,87.84,89,88c0,14.12,0,28.24,0,42.36c-4.32,0.53-8.94,1.39-13.13-0.24c-2.67-1.23-2.92-4.49-2.89-7.05
		C73.01,111.38,73,99.69,73,88c-4.69,0.01-9.37-0.01-14.06,0.01C57.78,84.7,56.7,80.79,58.59,77.53z"/>
	<path fill="#FFFFFF" d="M209.94,82.92c-0.06-4.25,3.89-7.76,8.09-7.41c10.27-0.02,20.55-0.05,30.82,0.04
		c1.07,3.34,2.17,7.3,0.18,10.52c-1.04,1.67-3.13,1.97-4.93,1.94c-6.2,0.03-12.4-0.04-18.6-0.01c0,2.96,0,5.92,0,8.87
		c6.89-0.01,13.77,0.03,20.66-0.02c1.61,3.75,2.86,10.46-2.24,11.97c-6.12,0.47-12.28,0.03-18.42,0.18c0,3.17,0,6.33,0,9.49
		c7.85,0,15.69,0.03,23.53-0.01c1.29,3.38,2.44,7.53,0.24,10.8c-1.45,2-4.15,1.68-6.31,1.75c-8.37-0.09-16.73,0.04-25.09-0.05
		c-2.6,0.08-5.24-1.09-6.67-3.3c-1.53-2.23-1.3-5.07-1.35-7.63C209.97,107.67,209.75,95.29,209.94,82.92z"/>
	<path fill="#FFFFFF" d="M214.14,245.43c16.19-4.939,32.34-10.039,48.53-14.979c-12.17,14.17-24.95,27.819-37.95,41.229
		c-13.45,13.6-27.15,27.021-42.13,38.94c-9.81,7.75-19.93,15.27-31.16,20.85c-8.36,4.13-17.97,6.601-27.28,4.99
		c-9.54-2.55-17.3-10.78-18.95-20.58c7.81,0.021,15.07-3.29,21.87-6.81c13.19-7.021,25.24-15.91,37.31-24.65
		c14.96-10.88,29.12-22.83,42.5-35.59C208.76,246.74,211.6,246.25,214.14,245.43z"/>
	<path fill="#FFFFFF" d="M938.43,324.58c10.17-2.15,21.221-1.39,30.561,3.42c6.18,3.16,11.359,8.22,14.6,14.36
		c4.4,8.069,5.37,17.56,4.53,26.59c-0.83,9.2-4.601,18.38-11.53,24.66c-7.149,6.56-16.99,9.569-26.56,9.659
		c-9.08,0.211-18.5-1.939-25.84-7.479c-7.931-5.87-12.671-15.34-13.94-25c-1.27-10.04-0.24-20.78,4.99-29.63
		C920.08,332.58,928.89,326.68,938.43,324.58 M946.22,341.25c-7.27,0.93-12.41,7.59-13.37,14.55c-1.119,7.74-1.17,16.37,3.141,23.21
		c5.22,8.181,18.39,8.98,24.77,1.8c4.351-4.79,5.181-11.609,5.2-17.819c-0.08-6.101-1.06-12.811-5.5-17.37
		C956.89,341.78,951.28,340.45,946.22,341.25z"/>
	<path fill="#FFFFFF" d="M1034.64,325.42c9.91-2.03,20.29-2.39,30.271-0.59c8.05,1.51,15.91,6.12,19.609,13.67
		c3.83,7.97,3.69,18.21-1.67,25.47c-2.359,3.391-5.63,5.971-9.01,8.261c5.32,7.01,11.1,13.689,15.92,21.079
		c-2.439,10.03-17.25,12.16-23.01,4c-4.66-6.63-8.6-13.739-12.99-20.55c-2.13-0.01-4.27-0.02-6.37-0.01
		c-0.029,8.09-0.01,16.18-0.01,24.28c-5.7,0.89-11.75,1.83-17.34-0.021c-3.729-1.25-4.57-5.6-4.54-9.04
		c0.01-19.67-0.04-39.34,0.02-59C1025.14,327.95,1030.76,326.28,1034.64,325.42 M1047.14,341.54c-0.029,6.19-0.02,12.38-0.01,18.58
		c4.66-0.08,9.78,0.649,13.94-1.96c5.649-3.2,5.27-12.98-0.721-15.601C1056.21,340.7,1051.53,341.14,1047.14,341.54z"/>
	<path fill="#FFFFFF" d="M483.78,329.12c5.689-5.5,14.84-5.271,21.899-2.9c3.9,1.36,5.84,5.261,7.511,8.74
		c6.14,12.73,12.939,25.16,18.079,38.35c-0.92-15.949-0.369-31.939-0.529-47.909c5.51-0.801,11.359-1.82,16.76,0.1
		c3.76,1.41,4.2,5.95,4.24,9.41c0.02,21.28,0.02,42.57-0.01,63.85c-5.78,3.76-13.141,3.88-19.69,2.53
		c-3.81-0.61-6.89-3.36-8.521-6.771c-6.739-13.6-13.5-27.21-19.609-41.1c0.66,15.88,0.62,31.78,0.59,47.68
		c-5.44,0.73-11.19,1.75-16.53-0.01c-3.779-1.22-4.54-5.67-4.479-9.109c0-18.341,0.029-36.681-0.01-55.021
		C483.52,334.35,483.28,331.7,483.78,329.12z"/>
	<path fill="#FFFFFF" d="M776.42,329.63c4.93-4.04,12.021-5.72,18.01-3.14c2.9,1.14,4.66,4.02,5.141,7
		c2.77,16.399,4.97,32.899,7.67,49.3c3.18-12.86,6.43-25.72,8.99-38.72c6.06-2.36,13.079-3.2,19.18-0.5
		c2.109,0.87,3.68,2.76,4.16,5.01c3.029,11.41,6.21,22.79,9.17,34.229c3.029-18.26,4.59-36.72,6.81-55.09
		c5.73-2.8,13.141-3.729,18.63,0.11c3.41,2.689,2.54,7.51,2.29,11.29c-1.689,15.66-4.41,31.21-8.09,46.52
		c-1.2,4.25-2.04,8.69-4.14,12.61c-5.55,3.9-12.891,4.11-19.42,3.5c-3.9-0.58-8.91-1.75-10.141-6.07
		c-2.76-8.59-4.93-17.35-7.22-26.06c-2.07,9.13-4.07,18.29-6.61,27.3c-0.29,1.86-2.21,2.54-3.689,3.24
		c-5.58,2.29-11.891,2.28-17.73,1.16c-3.47-0.83-7.529-2.15-9-5.74c-1.72-3.85-2.71-7.97-3.81-12.021
		C782.13,365.82,778.69,347.8,776.42,329.63z"/>
	<path fill="#FFFFFF" d="M1126,325.53c5.93-0.9,12.39-2.19,18.11,0.37c3.279,1.649,3.659,5.739,3.739,9.01
		c0.09,6.55-0.02,13.109,0.03,19.66c8.51-9.851,17.14-19.61,25.54-29.561c3.561,0.17,7.33,0.26,10.55,2.03
		c3.561,1.85,5.91,5.92,5.351,9.96c-0.391,4.42-3.44,7.9-6.36,10.96c-5.26,5.32-10.58,10.56-15.84,15.86
		c8.27,9.239,16.86,18.17,25.3,27.25c-0.48,3.1-1.359,6.37-3.9,8.43c-5.51,4.71-14.51,3.56-19.199-1.79
		c-7.521-7.85-14.23-16.43-21.431-24.56c-0.029,9.29-0.02,18.58-0.01,27.869c-5.81,0.891-12.05,1.931-17.7-0.17
		c-3.46-1.369-4.17-5.529-4.17-8.81C1125.98,369.87,1126.01,347.7,1126,325.53z"/>
	<path fill="#FFFFFF" d="M596.97,328.12c2.78-2.32,6.57-2.38,10.011-2.39c12.939,0.05,25.88-0.011,38.819,0.029
		c1.86,4.101,2.82,8.92,1.17,13.26c-1.069,2.7-4.08,4.03-6.859,3.851c-8.62,0.04-17.24-0.021-25.86,0.01c0,3.83,0,7.66,0,11.49
		c9.36,0.02,18.73-0.01,28.09,0.01c1.82,4.05,2.88,8.79,1.19,13.07c-1.021,2.55-3.811,3.93-6.46,3.79
		c-7.601,0.06-15.21-0.021-22.811,0.01c-0.02,4.34-0.02,8.67,0.021,13.01c10.62-0.06,21.239,0.07,31.859-0.069
		c2.091,4.09,2.96,9.029,1.351,13.439c-1.04,2.51-3.8,3.88-6.431,3.74c-11.689,0.05-23.38-0.04-35.06,0.03
		c-3.13,0.05-6.53-0.181-9.02-2.29c-2.79-2.091-4.011-5.67-3.971-9.061c-0.04-17.37,0.01-34.74-0.02-52.12
		C592.87,334.31,593.96,330.39,596.97,328.12z"/>
	<path fill="#FFFFFF" d="M680.61,329.51c1.229-2.81,4.479-3.859,7.35-3.75c17.99-0.029,35.99,0,53.99-0.01
		c1.939,4.19,2.93,9.14,1.24,13.58c-0.96,2.45-3.591,3.88-6.15,3.88c-4.85,0.16-9.7-0.03-14.54,0.05
		c0.01,19.25-0.01,38.5,0.01,57.75c-5.729,0.92-11.859,1.88-17.47-0.05c-4.36-1.65-4.49-6.99-4.44-10.91
		c0.051-15.6,0.011-31.2,0.021-46.79c-6.3-0.01-12.61-0.02-18.91,0.01C679.79,339,678.74,333.98,680.61,329.51z"/>
</g>
</svg>
