<?xml version="1.0" encoding="utf-8"?>
<!-- Generator: Adobe Illustrator 16.0.0, SVG Export Plug-In . SVG Version: 6.00 Build 0)  -->
<!DOCTYPE svg PUBLIC "-//W3C//DTD SVG 1.1//EN" "http://www.w3.org/Graphics/SVG/1.1/DTD/svg11.dtd">
<svg version="1.1" id="Layer_1" xmlns="http://www.w3.org/2000/svg" xmlns:xlink="http://www.w3.org/1999/xlink" x="0px" y="0px"
	 width="18px" height="16.125px" viewBox="0 45.627 18 16.125" enable-background="new 0 45.627 18 16.125" xml:space="preserve">
<path fill="#FFFFFF" d="M9,61.752c-0.458,0-0.879-0.128-1.255-0.381C5.678,60.341,0,56.451,0,51.627c0-3.308,2.692-6,6-6
	c1.062,0,2.088,0.277,3,0.806c0.911-0.528,1.939-0.806,3-0.806c3.308,0,6,2.692,6,6c0,4.823-5.678,8.716-7.745,9.744
	C9.879,61.625,9.458,61.752,9,61.752z M6,47.127c-2.481,0-4.5,2.019-4.5,4.5c0,2.057,1.415,3.953,2.601,5.179
	c1.511,1.562,3.291,2.724,4.354,3.244l0.107,0.065c0.265,0.189,0.607,0.189,0.872,0l0.107-0.065
	c1.065-0.521,2.845-1.682,4.354-3.244c1.187-1.227,2.601-3.121,2.601-5.179c0-2.481-2.018-4.5-4.5-4.5
	c-0.923,0-1.811,0.281-2.571,0.809L9,48.237l-0.43-0.3C7.812,47.407,6.922,47.127,6,47.127z"/>
</svg>
