<?xml version="1.0" encoding="utf-8"?>
<!-- Generator: Adobe Illustrator 16.0.0, SVG Export Plug-In . SVG Version: 6.00 Build 0)  -->
<!DOCTYPE svg PUBLIC "-//W3C//DTD SVG 1.1//EN" "http://www.w3.org/Graphics/SVG/1.1/DTD/svg11.dtd">
<svg version="1.1" id="Layer_1" xmlns="http://www.w3.org/2000/svg" xmlns:xlink="http://www.w3.org/1999/xlink" x="0px" y="0px"
	 width="18px" height="19.162px" viewBox="151.997 119.5 18 19.162" enable-background="new 151.997 119.5 18 19.162"
	 xml:space="preserve">
<path fill="#FFFFFF" d="M160.125,127.192c0,0.481,0.39,0.871,0.871,0.871s0.871-0.39,0.871-0.871H160.125z M161.868,120.371
	c0-0.481-0.39-0.871-0.871-0.871s-0.871,0.39-0.871,0.871H161.868z M157.874,123.462c0.438-0.2,0.631-0.716,0.432-1.154
	c-0.2-0.438-0.716-0.631-1.154-0.432L157.874,123.462z M152.868,129.847l-0.871-0.005v0.015L152.868,129.847z M160.997,137.79
	l0.01-0.871c-0.007,0-0.014,0-0.02,0L160.997,137.79z M169.125,129.847l0.871,0.01v-0.015L169.125,129.847z M164.841,121.876
	c-0.438-0.199-0.954-0.006-1.154,0.432c-0.199,0.438-0.006,0.954,0.432,1.154L164.841,121.876z M161.868,127.192v-6.821h-1.742
	v6.821H161.868z M157.152,121.876c-3.125,1.423-5.137,4.533-5.155,7.966l1.742,0.009c0.014-2.754,1.628-5.249,4.135-6.39
	L157.152,121.876z M151.997,129.857c0.058,4.919,4.091,8.86,9.01,8.804l-0.02-1.742c-3.958,0.046-7.202-3.125-7.248-7.082
	L151.997,129.857z M160.987,138.661c4.919,0.056,8.953-3.885,9.01-8.804l-1.742-0.02c-0.046,3.957-3.291,7.128-7.248,7.082
	L160.987,138.661z M169.997,129.842c-0.018-3.433-2.03-6.543-5.155-7.966l-0.722,1.585c2.506,1.141,4.121,3.636,4.135,6.39
	L169.997,129.842z"/>
</svg>
