<?xml version="1.0" encoding="utf-8"?>
<!-- Generator: Adobe Illustrator 16.0.0, SVG Export Plug-In . SVG Version: 6.00 Build 0)  -->
<!DOCTYPE svg PUBLIC "-//W3C//DTD SVG 1.1//EN" "http://www.w3.org/Graphics/SVG/1.1/DTD/svg11.dtd">
<svg version="1.1" id="Layer_1" xmlns="http://www.w3.org/2000/svg" xmlns:xlink="http://www.w3.org/1999/xlink" x="0px" y="0px"
	 width="13.5px" height="16.5px" viewBox="1.875 0.75 13.5 16.5" enable-background="new 1.875 0.75 13.5 16.5"
	 xml:space="preserve">
<g id="Layer_2">
	<g id="Layer_7">
		<g>
			<path fill="#FFFFFF" d="M14.625,6.75h-1.5V4.875c0-2.278-1.847-4.125-4.125-4.125H8.25c-2.278,0-4.125,1.847-4.125,4.125V6.75
				h-1.5c-0.414,0-0.75,0.336-0.75,0.75v9c0,0.414,0.336,0.75,0.75,0.75h12c0.414,0,0.75-0.336,0.75-0.75v-9
				C15.375,7.086,15.039,6.75,14.625,6.75z M5.625,4.875c0-1.45,1.175-2.625,2.625-2.625H9c1.45,0,2.625,1.175,2.625,2.625V6.75h-6
				V4.875z M13.875,15.75h-10.5v-7.5h10.5V15.75z"/>
			<circle fill="#FFFFFF" cx="5.625" cy="12" r="1.125"/>
			<circle fill="#FFFFFF" cx="8.625" cy="12" r="1.125"/>
			<circle fill="#FFFFFF" cx="11.625" cy="12" r="1.125"/>
		</g>
	</g>
</g>
</svg>
