<?xml version="1.0" encoding="utf-8"?>
<!-- Generator: Adobe Illustrator 16.0.0, SVG Export Plug-In . SVG Version: 6.00 Build 0)  -->
<!DOCTYPE svg PUBLIC "-//W3C//DTD SVG 1.1//EN" "http://www.w3.org/Graphics/SVG/1.1/DTD/svg11.dtd">
<svg version="1.1" id="Layer_1" xmlns="http://www.w3.org/2000/svg" xmlns:xlink="http://www.w3.org/1999/xlink" x="0px" y="0px"
	 width="18px" height="17.961px" viewBox="49.994 51.482 18 17.961" enable-background="new 49.994 51.482 18 17.961"
	 xml:space="preserve">
<path fill="#FFFFFF" d="M50.026,58.291c-0.092,0.326,0.018,0.676,0.279,0.892l4.118,3.396l-1.298,5.82
	c-0.104,0.462,0.188,0.92,0.649,1.023c0.239,0.054,0.489,0.002,0.688-0.141l4.532-3.259l4.531,3.257
	c0.384,0.276,0.92,0.189,1.197-0.195c0.143-0.198,0.194-0.449,0.141-0.688l-1.299-5.82l4.119-3.396
	c0.365-0.301,0.417-0.842,0.116-1.207c-0.135-0.165-0.327-0.272-0.538-0.303l-4.986-0.728l-2.509-5.025
	c-0.253-0.424-0.801-0.563-1.225-0.31c-0.127,0.076-0.234,0.183-0.31,0.31l-2.519,5.027l-4.985,0.728
	C50.392,57.722,50.117,57.964,50.026,58.291z M56.403,58.578c0.277-0.041,0.518-0.214,0.643-0.465l1.947-3.896l1.947,3.896
	c0.125,0.251,0.366,0.424,0.643,0.465l3.514,0.514l-3.03,2.5c-0.249,0.206-0.361,0.533-0.291,0.848l0.922,4.137l-3.205-2.306
	c-0.299-0.215-0.702-0.215-1.001,0l-3.205,2.306l0.922-4.137c0.07-0.314-0.042-0.642-0.291-0.848l-3.032-2.502L56.403,58.578z"/>
</svg>
