<?xml version="1.0" encoding="utf-8"?>
<!-- Generator: Adobe Illustrator 16.0.0, SVG Export Plug-In . SVG Version: 6.00 Build 0)  -->
<!DOCTYPE svg PUBLIC "-//W3C//DTD SVG 1.1//EN" "http://www.w3.org/Graphics/SVG/1.1/DTD/svg11.dtd">
<svg version="1.1" id="Layer_1" xmlns="http://www.w3.org/2000/svg" xmlns:xlink="http://www.w3.org/1999/xlink" x="0px" y="0px"
	 width="14.244px" height="18px" viewBox="165.916 99.251 14.244 18" enable-background="new 165.916 99.251 14.244 18"
	 xml:space="preserve">
<path fill="#FFFFFF" d="M177.967,117.251L177.967,117.251c-0.383,0-0.765-0.104-1.103-0.299l-2.993-1.732
	c-0.505-0.291-1.161-0.291-1.666,0l-2.993,1.732c-0.338,0.196-0.72,0.299-1.103,0.299c-1.209,0-2.193-0.976-2.193-2.175v-10.729
	c0-2.324,1.672-4.339,3.975-4.791c2.067-0.407,4.228-0.407,6.295,0c2.304,0.452,3.975,2.467,3.975,4.791v10.729
	c0,0.599-0.239,1.156-0.672,1.567C179.08,117.03,178.526,117.251,177.967,117.251z M173.039,113.902c0.484,0,0.962,0.127,1.382,0.37
	l2.993,1.731c0.174,0.101,0.359,0.151,0.554,0.151l0,0c0.281,0,0.562-0.111,0.768-0.308c0.213-0.201,0.33-0.476,0.33-0.771v-10.729
	c0-1.801-1.299-3.363-3.09-3.716c-1.931-0.38-3.943-0.38-5.874,0c-1.79,0.352-3.089,1.915-3.089,3.716v10.729
	c0,0.667,0.569,1.079,1.098,1.079c0.194,0,0.38-0.051,0.554-0.151l2.993-1.731C172.076,114.029,172.553,113.902,173.039,113.902z"/>
</svg>
